<?xml version="1.0" encoding="utf-8"?>
<svg width="604" height="434" viewBox="0 0 604 434" fill="none" xmlns="http://www.w3.org/2000/svg">
  <defs>
    <clipPath id="clip_path_1">
      <rect width="604" height="434" />
    </clipPath>
  </defs>
  <g clip-path="url(#clip_path_1)">
    <g transform="matrix(0.985 0.174 -0.174 0.985 49.888 -14.006)">
      <g transform="matrix(0.017 -1 1 0.017 0 257)">
        <path d="M3.05496 38.2924C-3.70065 25.5869 1.12266 9.81061 13.8281 3.05499C26.5336 -3.70063 42.3099 1.12268 49.0656 13.8281C55.8212 26.5336 50.9979 42.3099 38.2924 49.0656C25.5869 55.8212 9.8106 50.9979 3.05496 38.2924Z" fill="#4CCBEE" fill-rule="evenodd" />
        <g transform="matrix(0.017 1 -1 0.017 47.372 4.014)">
          <path d="M11.0973 0C10.2144 0 9.39548 0.197651 8.67008 0.61526C6.40304 1.92414 5.54013 5.11377 5.99737 9.08496C2.33037 10.6746 0 13.0153 0 15.6327C0 18.2501 2.33037 20.5908 5.99737 22.1804C5.54037 26.1514 6.40304 29.3412 8.67008 30.6501C9.39404 31.0677 10.2129 31.2654 11.0973 31.2654C12.9796 31.2654 15.1551 30.3207 17.3402 28.6999C19.5254 30.3207 21.7036 31.2654 23.5859 31.2654C24.4688 31.2654 25.2877 31.0677 26.0131 30.6501C28.2801 29.3412 29.143 26.1516 28.6858 22.1804C32.3514 20.5908 34.6803 18.2495 34.6803 15.6327C34.6803 13.0153 32.35 10.6746 28.683 9.08496C29.14 5.11392 28.2773 1.92414 26.0103 0.61526C25.2863 0.196206 24.4674 0 23.5831 0C21.7008 0 19.5252 0.944707 17.3402 2.56546C15.155 0.944707 12.9789 0 11.0973 0C11.0973 0 11.0973 0 11.0973 0ZM11.0972 2.52881C12.2267 2.52881 13.7203 3.12937 15.342 4.24194C14.3885 5.14173 13.4547 6.16489 12.5564 7.30413C11.0993 7.51306 9.72543 7.81764 8.45275 8.1988C8.44592 8.11054 8.42973 8.01793 8.42453 7.93068C8.26991 5.35856 8.8348 3.4412 9.93445 2.8054C10.2596 2.61754 10.6392 2.52881 11.0972 2.52881C11.0972 2.52881 11.0972 2.52881 11.0972 2.52881ZM23.583 2.52881C24.0396 2.52881 24.4207 2.61754 24.7458 2.8054C25.8455 3.43976 26.4104 5.35856 26.2557 7.93068C26.2505 8.01793 26.2344 8.11054 26.2275 8.1988C24.954 7.8174 23.5792 7.51308 22.1211 7.30413C21.2227 6.16505 20.2917 5.14163 19.3383 4.24194C20.9598 3.12956 22.4541 2.52881 23.583 2.52881C23.583 2.52881 23.583 2.52881 23.583 2.52881ZM17.3402 5.84777C17.7319 6.20431 18.1208 6.58114 18.5142 6.99362C18.1244 6.98053 17.7366 6.96258 17.3402 6.96258C16.9446 6.96258 16.5578 6.98059 16.1689 6.99362C16.5619 6.58157 16.9488 6.20397 17.3402 5.84777C17.3402 5.84777 17.3402 5.84777 17.3402 5.84777ZM17.3402 9.49139C18.5376 9.49139 19.6726 9.55832 20.7495 9.67484C21.4062 10.5675 22.0535 11.5112 22.6602 12.562C23.2417 13.5693 23.7559 14.6002 24.2096 15.6327C23.7559 16.6658 23.2421 17.6984 22.6602 18.7062C22.0554 19.7539 21.4097 20.6916 20.7551 21.5821C19.6402 21.7041 18.4965 21.774 17.3402 21.774C16.1427 21.774 15.0077 21.7071 13.9308 21.5906C13.2741 20.6979 12.6268 19.757 12.0201 18.7062C11.4383 17.6984 10.9246 16.6658 10.4707 15.6327C10.9243 14.6002 11.4386 13.5693 12.0201 12.562C12.6252 11.5143 13.2704 10.5738 13.9252 9.68331C15.0401 9.56132 16.1838 9.49139 17.3402 9.49139C17.3402 9.49139 17.3402 9.49139 17.3402 9.49139ZM24.1983 10.2732C24.7717 10.4116 25.3228 10.561 25.8409 10.7275C25.7235 11.2579 25.58 11.7985 25.4176 12.3447C25.2316 11.9958 25.0513 11.6458 24.8503 11.2976C24.6435 10.9396 24.4139 10.6179 24.1983 10.2732C24.1983 10.2732 24.1983 10.2732 24.1983 10.2732ZM10.4791 10.276C10.2643 10.6196 10.0362 10.9407 9.83002 11.2976C9.62906 11.6458 9.44862 11.9957 9.26273 12.3447C9.09996 11.7974 8.95407 11.2562 8.83657 10.7247C9.36419 10.558 9.91396 10.4104 10.4791 10.276C10.4791 10.276 10.4791 10.276 10.4791 10.276ZM6.45744 11.6533C6.7619 12.9388 7.18426 14.2714 7.72748 15.6299C7.18541 16.9851 6.76483 18.3153 6.46027 19.598C3.94382 18.3828 2.52881 16.8702 2.52881 15.6327C2.52881 14.3625 3.90428 12.915 6.20908 11.7633C6.28775 11.724 6.37706 11.6917 6.45744 11.6533C6.45744 11.6533 6.45744 11.6533 6.45744 11.6533ZM28.2201 11.6674C30.7365 12.8825 32.1515 14.3952 32.1515 15.6327C32.1515 16.9028 30.7761 18.3504 28.4713 19.502C28.3926 19.5414 28.3033 19.5737 28.2229 19.6121C27.9183 18.3258 27.4994 16.992 26.9557 15.6327C27.4971 14.2786 27.9158 12.949 28.2201 11.6674C28.2201 11.6674 28.2201 11.6674 28.2201 11.6674ZM17.3401 12.7427C15.7434 12.7427 14.4501 14.036 14.4501 15.6327C14.4501 17.2294 15.7434 18.5227 17.3401 18.5227C18.9369 18.5227 20.2302 17.2294 20.2302 15.6327C20.2302 14.036 18.9369 12.7427 17.3401 12.7427C17.3401 12.7427 17.3401 12.7427 17.3401 12.7427ZM9.26275 18.9207C9.44876 19.2697 9.63176 19.6195 9.83285 19.9677C10.0394 20.3256 10.2667 20.6478 10.482 20.9922C9.90868 20.8538 9.35753 20.7044 8.83941 20.5378C8.95688 20.0071 9.1002 19.4672 9.26275 18.9207C9.26275 18.9207 9.26275 18.9207 9.26275 18.9207ZM25.4176 18.9235C25.5802 19.4703 25.7264 20.0097 25.8438 20.5407C25.3161 20.7074 24.7664 20.855 24.2012 20.9894C24.416 20.6458 24.6442 20.3247 24.8503 19.9677C25.0509 19.6203 25.2321 19.2717 25.4176 18.9235C25.4176 18.9235 25.4176 18.9235 25.4176 18.9235ZM8.45275 23.0666C9.72623 23.448 11.1011 23.7523 12.5592 23.9612C13.4578 25.1009 14.3881 26.1262 15.342 27.0262C13.7205 28.1385 12.2266 28.7394 11.0972 28.7394C10.6406 28.7394 10.2596 28.6478 9.93445 28.46C8.8348 27.8256 8.26991 25.9096 8.42453 23.3375C8.42982 23.2494 8.44579 23.1558 8.45275 23.0666C8.45275 23.0666 8.45275 23.0666 8.45275 23.0666ZM26.2275 23.0666C26.2344 23.1558 26.2505 23.2494 26.2557 23.3375C26.4104 25.9096 25.8455 27.8242 24.7458 28.46C24.4207 28.6478 24.0411 28.7394 23.583 28.7394C22.4536 28.7394 20.9598 28.1387 19.3383 27.0262C20.2922 26.1261 21.2251 25.101 22.1239 23.9612C23.581 23.7523 24.9548 23.4477 26.2275 23.0666C26.2275 23.0666 26.2275 23.0666 26.2275 23.0666ZM16.1661 24.2717C16.5559 24.2848 16.9437 24.3028 17.3401 24.3028C17.7366 24.3028 18.1244 24.2848 18.5142 24.2717C18.1208 24.6842 17.7318 25.0611 17.3401 25.4176C16.9484 25.0611 16.5594 24.6842 16.1661 24.2717C16.1661 24.2717 16.1661 24.2717 16.1661 24.2717Z" fill="#F0FAEE" transform="translate(4.335 6.043)" />
        </g>
      </g>
      <g transform="matrix(-0.53 0.848 -0.848 -0.53 331.692 334.069)">
        <path d="M16.5338 30.3646C16.5338 31.2788 15.7929 32.0208 14.8775 32.0208C13.9622 32.0208 13.2213 31.2788 13.2213 30.3646C13.2213 30.3646 13.2213 14.9063 13.2213 14.9063C13.2213 14.1852 13.6884 13.547 14.3751 13.3273C15.0653 13.1087 15.8128 13.3604 16.229 13.9489C16.229 13.9489 34.7537 40.1221 34.7537 40.1221C40.4313 36.1162 44.1667 29.5199 44.1667 22.0833C44.1667 9.9375 34.2292 0 22.0833 0C9.9375 0 0 9.9375 0 22.0833C0 34.2292 9.9375 44.1667 22.0833 44.1667C25.6078 44.1667 28.9358 43.3087 31.8994 41.8236C31.8994 41.8236 16.5338 20.1135 16.5338 20.1135L16.5338 30.3646C16.5338 30.3646 16.5338 30.3646 16.5338 30.3646ZM27.5755 13.8021C27.5755 12.8878 28.3164 12.1458 29.2317 12.1458C30.1471 12.1458 30.888 12.8878 30.888 13.8021C30.888 13.8021 30.888 29.0837 30.888 29.0837L27.5755 24.4164L27.5755 13.8021C27.5755 13.8021 27.5755 13.8021 27.5755 13.8021Z" fill="#5F0DC2" transform="translate(4.417 4.417)" />
      </g>
      <path d="M6.28159 29.4428C6.28159 29.4428 10.6677 33.2893 13.9591 32.9826C17.2505 32.6759 19.8418 31.4086 22.2272 28.8384C24.6126 26.2683 24.4886 22.9439 24.8427 20.2048C25.1967 17.4656 24.8427 8.54939 24.8427 8.54939C24.8427 8.54939 24.0963 5.92676 22.649 5.95932C21.2018 5.99187 20.3434 7.46994 20.5399 8.0314C20.7363 8.59283 20.5399 15.8017 20.5399 15.8017L20.5399 4.05992C20.5399 4.05992 20.4617 1.49385 18.4306 1.55617C16.3995 1.61852 16.0683 4.05991 16.0683 4.05991L16.0683 14.852L16.1867 2.65431C16.1867 2.65431 16.0858 -0.0872803 13.9591 0.00213623C11.8324 0.0915833 11.6812 2.33319 11.6812 2.33319L11.6812 14.852L11.6812 3.36964C11.6812 3.36964 11.1793 1.46024 9.48758 1.55618C7.79584 1.65211 7.37836 3.36964 7.37836 3.36964L7.37836 18.3917L3.83487 13.3842C3.83487 13.3842 2.4267 11.7336 0.881989 12.6935C-0.66272 13.6535 0.291382 15.8016 0.291382 15.8016C0.291382 15.8016 4.54352 28.1949 6.28159 29.4428Z" fill="none" stroke-width="3" stroke="#7917F1" transform="matrix(0.755 -0.656 0.656 0.755 261.809 75)" />
      <g transform="matrix(0.017 -1 1 0.017 262.948 310)">
        <path d="M3.5168 44.0813C-4.2601 29.4551 1.29239 11.2938 15.9186 3.51684C30.5449 -4.26008 48.7062 1.2924 56.4832 15.9186C64.2601 30.5449 58.7076 48.7062 44.0813 56.4832C29.4551 64.2601 11.2937 58.7076 3.5168 44.0813Z" fill="#4CCBEE" fill-rule="evenodd" transform="matrix(1 -0 0 1 0 0)" />
        <g transform="matrix(0.191 0.982 -0.982 0.191 47.402 3)">
          <path d="M27.2033 37.3312C18.0968 42.1732 6.8418 38.79 2.12666 29.9221C-1.61767 22.88 -0.349388 14.1763 5.39272 8.44671C6.58976 7.14112 6.00684 3.32487 5.75854 2.23019C5.75854 2.23019 5.12896 0 5.12896 0C5.12896 0 7.13474 1.05237 7.13474 1.05237C8.87461 2.0231 12.2214 3.92369 13.5281 3.45197C21.9055 1.00495 31.0157 4.74799 35.0836 12.3987C39.7987 21.2665 36.3099 32.4892 27.2033 37.3312C27.2033 37.3312 27.2033 37.3312 27.2033 37.3312Z" fill="#F0FAEE" transform="matrix(0.191 -0.982 0.982 0.191 0 36.499)" />
          <path d="M15.6359 12.0117C16.1562 11.735 16.7633 11.4122 17.3357 11.4424C17.908 11.4727 18.4917 11.9429 18.7634 12.2446C19.1217 12.5001 19.0407 12.7662 18.873 13.0784C18.7053 13.3906 18.6591 13.3037 18.1677 13.0074C17.6764 12.711 17.2718 12.3685 16.0576 13.0141C14.8434 13.6597 14.7276 14.2789 14.3517 15.0364C13.9757 15.7939 13.8947 16.06 13.5826 15.8914C13.2704 15.7228 13.1318 15.462 13.3805 14.8837C13.5425 14.3515 13.8722 13.507 14.3407 12.9234C14.7223 12.3859 15.1155 12.2884 15.6359 12.0117C15.6359 12.0117 15.6359 12.0117 15.6359 12.0117C15.6359 12.0117 15.6359 12.0117 15.6359 12.0117ZM11.9458 18.8806C12.917 19.0333 14.1888 18.9147 16.357 17.7618C18.5253 16.6089 19.7628 15.1703 20.1792 14.2798C20.3875 13.8345 20.6129 14.0492 20.7458 14.09C20.8383 14.2639 21.0175 14.3917 20.896 14.7908C20.815 15.0569 19.8086 16.9303 17.993 18.1187C16.2641 19.2609 13.7953 20.6852 11.5407 20.2112C11.1419 20.0887 11.0437 19.6948 11.1709 19.5156C11.2519 19.2495 11.3792 19.0704 11.5526 18.9781C11.7261 18.8859 11.8128 18.8398 11.9458 18.8806C11.9458 18.8806 11.9458 18.8806 11.9458 18.8806C11.9458 18.8806 11.9458 18.8806 11.9458 18.8806ZM0.528803 16.0296C-0.811775 13.5083 0.455229 9.82364 3.66419 8.11742C7.65371 5.99615 12.5035 8.21278 14.452 7.06521C16.1866 6.14293 17.7719 1.1738 19.4197 0.297628C21.1543 -0.624655 22.4662 0.796614 23.021 1.83991C23.5295 2.79624 24.1533 4.80644 23.887 6.3978C23.6206 7.98917 23.4181 8.65444 22.3312 9.12086C21.0707 9.67953 16.6603 7.4523 15.053 8.19542C13.012 9.16913 10.802 15.4741 7.41957 17.2726C5.33809 18.3793 4.59231 18.4413 3.66734 18.3755C2.34352 18.1872 1.26842 17.4206 0.528803 16.0296C0.528803 16.0296 0.528803 16.0296 0.528803 16.0296C0.528803 16.0296 0.528803 16.0296 0.528803 16.0296Z" fill="#4CCBEE" transform="matrix(0.191 -0.982 0.982 0.191 15.312 27.918)" />
        </g>
      </g>
      <path d="M0.136475 17.9681C0.107971 17.9074 0.0907898 17.8409 0.0839539 17.7715C0.0722351 17.6223 0.117706 17.4754 0.210754 17.3603C0.210754 17.3603 5.34833 11.1301 5.34833 11.1301C5.34833 11.1301 0.345764 9.15643 0.345764 9.15643C0.145752 9.07828 0.0115967 8.88187 0.000579834 8.65939C-0.00952148 8.43887 0.109741 8.23038 0.302002 8.13287C0.302002 8.13287 16.2277 0.0567627 16.2277 0.0567627C16.42 -0.040741 16.6485 -0.0111084 16.8123 0.133972C16.9732 0.278015 17.0395 0.50885 16.9764 0.722778C16.9764 0.722778 11.8161 18.2469 11.8161 18.2469C11.7541 18.4579 11.5763 18.6111 11.3669 18.6373C11.1555 18.6644 10.9502 18.5598 10.8403 18.3705C10.8403 18.3705 8.02109 13.4748 8.02109 13.4748C8.02109 13.4748 3.03363 19.7963 3.03363 19.7963C2.9444 19.9095 2.81329 19.9833 2.67056 19.9974C2.52783 20.0116 2.38849 19.9682 2.27869 19.8734C2.27869 19.8734 0.277313 18.1539 0.277313 18.1539C0.217773 18.1016 0.170502 18.0407 0.136475 17.9681Z" fill="#7917F1" transform="matrix(0.017 -1 1 0.017 373.522 224)" />
      <g transform="matrix(0.017 -1 1 0.017 491.408 241)">
        <path d="M60.923 59.4053C51.2145 69.4424 30.8426 65.5261 15.4211 50.6581C-0.000379806 35.7901 -4.6316 15.6005 5.07693 5.56343C14.7855 -4.47365 35.1574 -0.557385 50.5789 14.3106C66.0004 29.1787 70.6316 49.3682 60.923 59.4053Z" fill="#4BF16F" fill-rule="evenodd" transform="matrix(1 -0 0 1 0 0)" />
        <g transform="matrix(1 -0 0 1 7.758 11.672)">
          <path d="M11.7748 1.64662C11.7748 1.64662 5.26871 0.0216532 5.26871 0.0216532C5.0254 -0.0399666 4.77324 0.0321732 4.60768 0.209449C4.60768 0.209449 0.176534 4.95375 0.176534 4.95375C0.010952 5.13102 -0.0427256 5.38633 0.0350084 5.62523C0.0350084 5.62523 2.11169 11.9944 2.11169 11.9944C2.18936 12.2317 2.38791 12.4165 2.63033 12.4773C2.63033 12.4773 9.13807 14.1006 9.13807 14.1006C9.38046 14.1597 9.63181 14.0884 9.79737 13.9111C9.79737 13.9111 14.2285 9.16683 14.2285 9.16683C14.3941 8.98957 14.4478 8.73427 14.37 8.49535C14.37 8.49535 12.2935 2.1295 12.2935 2.1295C12.2546 2.01007 12.1849 1.90436 12.0957 1.8213C12.0056 1.73742 11.896 1.6762 11.774 1.64582C11.774 1.64582 11.7748 1.64662 11.7748 1.64662ZM29.8673 26.4765C29.8673 26.4765 28.7832 26.2051 28.7832 26.2051C28.7422 26.1947 28.7012 26.2071 28.6735 26.2368C28.6735 26.2368 27.9345 27.0279 27.9345 27.0279C27.9068 27.0576 27.8981 27.1002 27.9105 27.1395C27.9105 27.1395 28.2565 28.2011 28.2565 28.2011C28.2697 28.2412 28.3021 28.2714 28.3431 28.2818C28.3431 28.2818 29.428 28.5523 29.428 28.5523C29.4681 28.5619 29.51 28.5503 29.5377 28.5206C29.5377 28.5206 30.2766 27.7294 30.2766 27.7294C30.3044 27.6997 30.313 27.6572 30.2998 27.6171C30.2998 27.6171 29.953 26.5563 29.953 26.5563C29.9472 26.5362 29.9356 26.5189 29.9208 26.505C29.9059 26.4912 29.8877 26.4808 29.8673 26.4765C29.8673 26.4765 29.8673 26.4765 29.8673 26.4765Z" fill="#F0FAEE" transform="translate(12.042 9.795)" />
          <path d="M21.2843 3.30983C21.2843 3.30983 20.282 0.200415 20.282 0.200415C20.2506 0.102673 20.1694 0.0286331 20.0687 0.00679016C19.9681 -0.0150528 19.8635 0.0164852 19.7933 0.0915833C19.7933 0.0915833 13.2253 7.12208 13.2253 7.12208C13.2253 7.12208 12.2927 4.26368 12.2927 4.26368C12.2538 4.14422 12.1841 4.03852 12.0949 3.95546C12.0057 3.87242 11.8952 3.81035 11.7732 3.77998C11.7732 3.77998 11.774 3.7808 11.774 3.7808C11.774 3.7808 5.26789 2.15583 5.26789 2.15583C5.0246 2.09419 4.77244 2.16635 4.60768 2.34274C4.60768 2.34274 0.176533 7.08706 0.176533 7.08706C0.010952 7.26431 -0.0427246 7.51962 0.0350094 7.75854C0.0350094 7.75854 2.11169 14.1277 2.11169 14.1277C2.18936 14.365 2.38791 14.5498 2.63033 14.6106C2.63033 14.6106 9.1381 16.2339 9.1381 16.2339C9.37964 16.2938 9.63182 16.2217 9.79738 16.0444C9.79738 16.0444 21.1562 3.88283 21.1562 3.88283C21.2998 3.72915 21.3479 3.50952 21.2843 3.30983C21.2843 3.30983 21.2843 3.30983 21.2843 3.30983ZM8.08143 12.3947C8.08143 12.3947 5.12376 11.6572 5.12376 11.6572C5.01365 11.6298 4.92356 11.5459 4.8885 11.4382C4.8885 11.4382 3.94448 8.54301 3.94448 8.54301C3.90765 8.43361 3.93319 8.31698 4.00821 8.23664C4.00821 8.23664 6.02275 6.07974 6.02275 6.07974C6.09778 5.9994 6.21172 5.96673 6.32351 5.99408C6.32351 5.99408 9.28125 6.73322 9.28125 6.73322C9.28125 6.73322 9.28038 6.7324 9.28038 6.7324C9.33588 6.74653 9.38507 6.77437 9.42618 6.81265C9.46729 6.85093 9.49774 6.89886 9.51653 6.95226C9.51653 6.95226 10.4605 9.84575 10.4605 9.84575C10.4956 9.95519 10.4701 10.0718 10.395 10.1522C10.395 10.1522 8.38052 12.3091 8.38052 12.3091C8.3063 12.3885 8.19156 12.4221 8.08143 12.3947C8.08143 12.3947 8.08143 12.3947 8.08143 12.3947Z" fill="#F0FAEE" transform="translate(23.451 18.207)" />
          <path d="M11.7759 0.000801086C11.7759 0.000801086 0.176544 3.30806 0.176544 3.30806C0.0109577 3.48537 -0.0427437 3.74068 0.0350304 3.97961C0.0350304 3.97961 2.11189 10.3491 2.11189 10.3491C2.18956 10.5863 2.3881 10.7712 2.63055 10.832C2.63055 10.832 14.2298 7.52136 14.2298 7.52136C14.3954 7.34409 14.4491 7.08874 14.3714 6.84984C14.3714 6.84984 12.2946 0.483694 12.2946 0.483694C12.2558 0.364233 12.1861 0.258554 12.0968 0.175495C12.0067 0.0916061 11.8971 0.0303841 11.775 0C11.775 0 11.7759 0.000801086 11.7759 0.000801086Z" fill="#F0FAEE" transform="matrix(1 0 -0 1 12.042 11.441)" />
          <path d="M9.665 1.64669C9.665 1.64669 3.15823 0.0216675 3.15823 0.0216675C2.91489 -0.0399761 2.6627 0.0321579 2.49711 0.209467C2.49711 0.209467 0 11.9941 0 11.9941C0.0776806 12.2313 0.276268 12.4162 0.518719 12.4771C0.518719 12.4771 7.02709 14.1004 7.02709 14.1004C7.27038 14.1603 7.52174 14.089 7.68732 13.9118C7.68732 13.9118 10.1837 2.12961 10.1837 2.12961C10.1448 2.01014 10.0751 1.90443 9.98586 1.82139C9.89578 1.7375 9.78618 1.67628 9.66408 1.64588C9.66408 1.64588 9.665 1.64669 9.665 1.64669Z" fill="#F0FAEE" transform="matrix(1 0 -0 1 14.153 9.795)" />
          <path d="M48.2982 38.6239C48.2982 38.6239 46.2216 32.258 46.2216 32.258C46.1827 32.1386 46.1131 32.0329 46.0238 31.9498C45.9346 31.8668 45.8241 31.8047 45.7021 31.7744C45.7021 31.7744 45.703 31.7752 45.703 31.7752C45.703 31.7752 39.1968 30.1502 39.1968 30.1502C38.9544 30.0894 38.6981 30.1642 38.5268 30.3476C38.5268 30.3476 34.1136 35.0727 34.1136 35.0727C33.9431 35.2552 33.8854 35.5166 33.9631 35.7538C33.9631 35.7538 36.0398 42.123 36.0398 42.123C36.1175 42.3619 36.3143 42.5451 36.5584 42.6059C36.5584 42.6059 39.5597 43.3545 39.5597 43.3545C39.8345 43.4226 40.0759 43.1625 39.9869 42.8935C39.9869 42.8935 37.8718 36.5375 37.8718 36.5375C37.8375 36.4289 37.863 36.3105 37.9397 36.2284C37.9397 36.2284 39.9509 34.0751 39.9509 34.0751C40.026 33.9947 40.139 33.9612 40.2449 33.9879C40.2449 33.9879 43.2078 34.7286 43.2078 34.7286C43.2078 34.7286 43.2069 34.7278 43.2069 34.7278C43.2624 34.7419 43.3116 34.7697 43.3527 34.808C43.3938 34.8463 43.4242 34.8942 43.443 34.9476C43.443 34.9476 44.3889 37.8478 44.3889 37.8478C44.423 37.9514 44.3974 38.0663 44.3224 38.1466C44.3224 38.1466 42.6814 39.9036 42.6814 39.9036C42.6112 39.9787 42.5862 40.086 42.6167 40.1846C42.6481 40.2824 42.7286 40.3573 42.8292 40.3808C42.8292 40.3808 46.0627 41.1171 46.0627 41.1171C46.2623 41.1626 46.4724 41.0986 46.6127 40.9484C46.6127 40.9484 48.146 39.3067 48.146 39.3067C48.3181 39.1225 48.3758 38.8611 48.2982 38.6239C48.2982 38.6239 48.2982 38.6239 48.2982 38.6239ZM15.9372 8.49447C15.9372 8.49447 13.8607 2.12862 13.8607 2.12862C13.8218 2.00918 13.7521 1.90348 13.6629 1.82042C13.5737 1.73735 13.4632 1.67531 13.3411 1.64493C13.3411 1.64493 13.342 1.64574 13.342 1.64574C13.342 1.64574 6.83589 0.0207674 6.83589 0.0207674C6.59347 -0.0400497 6.33716 0.0347728 6.16589 0.218153C6.16589 0.218153 0.0774283 6.7369 0.0774283 6.7369C0.00729015 6.812 -0.0177184 6.91931 0.0128123 7.01794C0.0441471 7.11568 0.12461 7.19061 0.225279 7.21412C0.225279 7.21412 3.45874 7.95041 3.45874 7.95041C3.65835 7.99583 3.86762 7.93108 4.0079 7.78089C4.0079 7.78089 7.59082 3.94474 7.59082 3.94474C7.66585 3.86441 7.77892 3.8309 7.88477 3.85763C7.88477 3.85763 10.8476 4.59829 10.8476 4.59829C10.8476 4.59829 10.8476 4.59829 10.8476 4.59829C10.9031 4.6124 10.9523 4.64024 10.9934 4.67852C11.0345 4.7168 11.065 4.76473 11.0838 4.81815C11.0838 4.81815 12.0297 7.71832 12.0297 7.71832C12.0638 7.82189 12.0382 7.93683 11.9631 8.01716C11.9631 8.01716 8.38018 11.8533 8.38018 11.8533C8.2399 12.0035 8.18982 12.2165 8.25 12.4129C8.25 12.4129 9.21122 15.582 9.21122 15.582C9.24173 15.6806 9.32221 15.7556 9.42206 15.78C9.52266 15.8018 9.62815 15.7694 9.69829 15.6943C9.69829 15.6943 15.7859 9.17642 15.7859 9.17642C15.9572 8.99304 16.0149 8.73169 15.9372 8.49447C15.9372 8.49447 15.9372 8.49447 15.9372 8.49447Z" fill="#F0FAEE" />
        </g>
      </g>
      <path d="M29.9062 14.028C29.8506 14.0928 29.7822 14.1471 29.7048 14.1906C29.5366 14.2805 29.3403 14.3011 29.1553 14.2491C29.1553 14.2491 19.0905 11.3139 19.0905 11.3139C19.0905 11.3139 19.4905 18.2638 19.4905 18.2638C19.5075 18.5413 19.3504 18.8007 19.0963 18.927C18.8439 19.0512 18.5356 19.0156 18.3175 18.8367C18.3175 18.8367 0.255615 4.0195 0.255615 4.0195C0.0375977 3.84061 -0.0515747 3.55383 0.02948 3.28546C0.11084 3.0209 0.344788 2.82458 0.629089 2.79062C0.629089 2.79062 23.9106 0.00512695 23.9106 0.00512695C24.191 -0.0285034 24.4664 0.104797 24.6103 0.340393C24.7563 0.577759 24.7453 0.875031 24.5833 1.10193C24.5833 1.10193 20.3853 6.94411 20.3853 6.94411C20.3853 6.94411 30.4756 9.65443 30.4756 9.65443C30.6563 9.7029 30.8135 9.82117 30.9072 9.98358C31.001 10.146 31.0257 10.3337 30.9744 10.5124C30.9744 10.5124 30.0472 13.7661 30.0472 13.7661C30.0183 13.8635 29.9727 13.9507 29.9062 14.028Z" fill="#7917F1" transform="matrix(-0.966 0.259 -0.259 -0.966 576.973 113.931)" />
      <g transform="matrix(0.017 -1 1 0.017 307.511 208)">
        <path d="M50.8182 42.0708C42.771 54.9491 25.8075 58.8654 12.9292 50.8182C0.0508998 42.7709 -3.86544 25.8075 4.1818 12.9292C12.2291 0.0509202 29.1925 -3.86543 42.0708 4.1818C54.9491 12.229 58.8655 29.1926 50.8182 42.0708Z" fill="#F7CE00" fill-rule="evenodd" />
        <path d="M0.35372 19.6493C0.405439 21.1306 1.21208 22.4613 2.45862 23.1214C2.9432 23.3782 3.72948 23.674 4.24984 23.8315C4.6958 23.9769 10.2799 26.2424 13.6945 27.6361C13.6945 27.6361 13.6893 27.6246 13.6892 27.6245C14.4767 27.9892 15.3436 28.185 16.2526 28.1532C19.5788 28.0371 22.1824 25.011 22.0565 21.4078C21.9307 17.8047 19.1224 14.9675 15.7962 15.0837C15.7962 15.0837 13.9495 15.1482 13.9495 15.1482C13.856 14.881 13.7639 14.5357 13.7504 14.1485C13.7369 13.7601 13.8047 13.4102 13.8793 13.1375C13.8793 13.1375 15.726 13.073 15.726 13.073C19.0522 12.9568 21.6557 9.93072 21.5299 6.32758C21.4041 2.7244 18.5958 -0.112723 15.2696 0.00344372C14.3606 0.0351667 13.5095 0.290914 12.7493 0.709737C12.7494 0.709614 12.7538 0.697784 12.7538 0.697784C9.4442 2.32625 4.03212 4.97529 3.60333 5.1488C3.08927 5.34491 2.32569 5.69521 1.86023 5.98526C0.662762 6.73069 -0.049099 8.11437 0.00263977 9.59577C0.0782013 11.7597 1.75163 13.469 3.7646 13.4828C3.71473 13.7926 3.68413 14.1337 3.6969 14.4996C3.70969 14.8655 3.76401 15.2037 3.83537 15.5092C1.82826 15.6634 0.278137 17.4853 0.35372 19.6493C0.35372 19.6493 0.35372 19.6493 0.35372 19.6493ZM5.70762 14.4294C5.69405 14.0409 5.76185 13.691 5.83645 13.4184C5.83645 13.4184 7.78434 13.3503 7.78434 13.3503C7.73526 13.6579 7.70565 13.9966 7.71832 14.3592C7.73098 14.7219 7.78415 15.0576 7.85454 15.361C7.85454 15.361 5.90667 15.429 5.90667 15.429C5.8132 15.1619 5.72112 14.8166 5.70762 14.4294C5.70762 14.4294 5.70762 14.4294 5.70762 14.4294ZM12.003 21.7589C11.9159 19.2641 13.6491 17.1718 15.8664 17.0944C18.0837 17.0169 19.9587 18.9833 20.0458 21.478C20.133 23.9728 18.3997 26.0651 16.1824 26.1425C13.9651 26.22 12.0902 24.2537 12.003 21.7589C12.003 21.7589 12.003 21.7589 12.003 21.7589ZM11.4764 6.67862C11.3893 4.18386 13.1225 2.09154 15.3398 2.01414C17.5571 1.93669 19.4321 3.90298 19.5192 6.39778C19.6063 8.89255 17.8731 10.9849 15.6558 11.0623C13.4385 11.1397 11.5635 9.17339 11.4764 6.67862C11.4764 6.67862 11.4764 6.67862 11.4764 6.67862Z" fill="#F0FAEE" transform="translate(16.453 12.879)" />
      </g>
      <path d="M55.9286 17.9468C55.8209 17.6586 55.5896 17.4235 55.2965 17.2996C55.2965 17.2996 14.5818 0.0941772 14.5818 0.0941772C14.2887 -0.0296936 13.9582 -0.0319824 13.6751 0.0911255C13.3879 0.212494 13.1728 0.446747 13.0821 0.73819C13.0821 0.73819 0.0502014 41.4548 0.0502014 41.4548C-0.0885315 41.8816 0.0670471 42.3504 0.432648 42.6423C0.432648 42.6423 15.1824 54.2336 15.1824 54.2336C15.2604 54.2987 15.3531 54.3516 15.4508 54.3929C15.5486 54.4341 15.6471 54.4621 15.7523 54.4745C15.7523 54.4745 34.386 56.9905 34.386 56.9905C34.8509 57.0495 35.2936 56.8336 35.5097 56.4395C35.5097 56.4395 55.873 18.821 55.873 18.821C56.0206 18.5536 56.0403 18.2368 55.9286 17.9468ZM41.3902 27.7408L21.7859 19.4563L20.0981 24.7105L38.7621 32.5977L30.9901 46.95L19.2209 45.5396L19.1323 45.4655L10.0481 38.0957L12.0783 31.768L17.1544 33.9131L16.3667 36.3692L21.6661 39.9735L27.8459 41.2202L31.1792 35.0813L13.4189 27.5761L18.3098 12.2855L43.902 23.1004L41.3902 27.7408Z" fill="#FF6E55" transform="matrix(0.017 -1 1 0.017 427.568 171)" />
      <g transform="matrix(0.017 -1 1 0.017 433.675 108)">
        <path d="M2.69164 33.7384C-3.26053 22.5439 0.989148 8.64385 12.1836 2.69167C23.378 -3.26052 37.2781 0.989164 43.2303 12.1836C49.1825 23.378 44.9328 37.2781 33.7383 43.2303C22.5439 49.1825 8.64384 44.9328 2.69164 33.7384Z" fill="#4CCBEE" fill-rule="evenodd" />
        <g transform="matrix(0.017 1 -1 0.017 41.737 3.537)">
          <path d="M9.77732 0C8.99943 0 8.27796 0.174142 7.63884 0.542079C5.64145 1.69528 4.88118 4.50552 5.28403 8.00437C2.05319 9.40493 0 11.4672 0 13.7733C0 16.0794 2.05319 18.1416 5.28403 19.5422C4.88138 23.0409 5.64145 25.8513 7.63884 27.0045C8.27668 27.3724 8.99816 27.5466 9.77732 27.5466C11.4357 27.5466 13.3525 26.7142 15.2777 25.2863C17.203 26.7142 19.1221 27.5466 20.7805 27.5466C21.5584 27.5466 22.2799 27.3724 22.919 27.0045C24.9164 25.8513 25.6767 23.041 25.2738 19.5422C28.5034 18.1417 30.5554 16.0789 30.5554 13.7733C30.5554 11.4672 28.5022 9.40493 25.2713 8.00437C25.674 4.50566 24.9139 1.69528 22.9165 0.542079C22.2787 0.172869 21.5572 0 20.778 0C19.1196 0 17.2029 0.832341 15.2777 2.26032C13.3524 0.832341 11.4352 0 9.77732 0C9.77732 0 9.77732 0 9.77732 0ZM9.77731 2.22801C10.7724 2.22801 12.0884 2.75714 13.5172 3.73738C12.6771 4.53014 11.8544 5.4316 11.0629 6.43534C9.77909 6.61942 8.56867 6.88777 7.44737 7.2236C7.44134 7.14583 7.42708 7.06424 7.4225 6.98737C7.28627 4.72118 7.78397 3.03188 8.75283 2.4717C9.03929 2.30619 9.37373 2.22801 9.77731 2.22801C9.77731 2.22801 9.77731 2.22801 9.77731 2.22801ZM20.778 2.22801C21.1803 2.22801 21.516 2.30619 21.8025 2.4717C22.7714 3.03061 23.2691 4.72118 23.1328 6.98737C23.1282 7.06424 23.114 7.14583 23.108 7.2236C21.986 6.88756 20.7746 6.61944 19.49 6.43534C18.6985 5.43174 17.8782 4.53005 17.0382 3.73738C18.4668 2.7573 19.7834 2.22801 20.778 2.22801C20.778 2.22801 20.778 2.22801 20.778 2.22801ZM15.2777 5.15223C15.6228 5.46636 15.9655 5.79837 16.3121 6.16179C15.9686 6.15025 15.627 6.13444 15.2777 6.13444C14.9292 6.13444 14.5884 6.15031 14.2457 6.16179C14.592 5.79875 14.9329 5.46606 15.2777 5.15223C15.2777 5.15223 15.2777 5.15223 15.2777 5.15223ZM15.2777 8.36245C16.3327 8.36245 17.3327 8.42142 18.2815 8.52408C18.8601 9.31055 19.4304 10.1421 19.9649 11.0679C20.4773 11.9553 20.9303 12.8636 21.3301 13.7733C20.9303 14.6835 20.4776 15.5933 19.9649 16.4812C19.432 17.4044 18.8632 18.2305 18.2865 19.0151C17.3042 19.1225 16.2965 19.1841 15.2777 19.1841C14.2226 19.1841 13.2227 19.1252 12.2739 19.0225C11.6952 18.236 11.125 17.407 10.5904 16.4812C10.0778 15.5933 9.62519 14.6835 9.22529 13.7733C9.6249 12.8636 10.0781 11.9553 10.5904 11.0679C11.1235 10.1447 11.692 9.3161 12.2689 8.53154C13.2512 8.42406 14.2589 8.36245 15.2777 8.36245C15.2777 8.36245 15.2777 8.36245 15.2777 8.36245ZM21.3201 9.05123C21.8252 9.17318 22.3108 9.30483 22.7673 9.45157C22.6639 9.91888 22.5374 10.3951 22.3943 10.8764C22.2305 10.569 22.0716 10.2606 21.8945 9.95387C21.7123 9.63838 21.51 9.35493 21.3201 9.05123C21.3201 9.05123 21.3201 9.05123 21.3201 9.05123ZM9.23275 9.05371C9.0435 9.35647 8.84247 9.63938 8.66083 9.95386C8.48378 10.2606 8.3248 10.5689 8.16102 10.8764C8.01761 10.3942 7.88907 9.91732 7.78555 9.44908C8.25041 9.3022 8.73479 9.17214 9.23275 9.05371C9.23275 9.05371 9.23275 9.05371 9.23275 9.05371ZM5.68936 10.2672C5.95761 11.3998 6.32973 12.5739 6.80833 13.7708C6.33074 14.9649 5.96019 16.1368 5.69185 17.267C3.47471 16.1963 2.22801 14.8636 2.22801 13.7733C2.22801 12.6542 3.43988 11.3789 5.47054 10.3642C5.53985 10.3295 5.61854 10.301 5.68936 10.2672C5.68936 10.2672 5.68936 10.2672 5.68936 10.2672ZM24.8635 10.2796C27.0807 11.3502 28.3274 12.683 28.3274 13.7733C28.3274 14.8924 27.1155 16.1677 25.0848 17.1824C25.0155 17.2171 24.9368 17.2455 24.866 17.2794C24.5976 16.1461 24.2285 14.9709 23.7495 13.7733C24.2265 12.5802 24.5954 11.4088 24.8635 10.2796C24.8635 10.2796 24.8635 10.2796 24.8635 10.2796ZM15.2777 11.227C13.8709 11.227 12.7314 12.3665 12.7314 13.7733C12.7314 15.1801 13.8709 16.3196 15.2777 16.3196C16.6845 16.3196 17.824 15.1801 17.824 13.7733C17.824 12.3665 16.6845 11.227 15.2777 11.227C15.2777 11.227 15.2777 11.227 15.2777 11.227ZM8.16102 16.6702C8.3249 16.9777 8.48614 17.2859 8.66331 17.5927C8.84533 17.908 9.04554 18.1919 9.23523 18.4954C8.73011 18.3734 8.24452 18.2418 7.78803 18.095C7.89153 17.6274 8.0178 17.1518 8.16102 16.6702C8.16102 16.6702 8.16102 16.6702 8.16102 16.6702ZM22.3943 16.6727C22.5376 17.1544 22.6664 17.6297 22.7698 18.0975C22.3049 18.2444 21.8206 18.3744 21.3226 18.4929C21.5119 18.1901 21.7129 17.9072 21.8945 17.5927C22.0712 17.2866 22.2309 16.9795 22.3943 16.6727C22.3943 16.6727 22.3943 16.6727 22.3943 16.6727ZM7.44737 20.323C8.56937 20.659 9.78068 20.9271 11.0654 21.1112C11.8571 22.1153 12.6768 23.0187 13.5172 23.8117C12.0885 24.7916 10.7724 25.321 9.77731 25.321C9.375 25.321 9.03929 25.2404 8.75283 25.0749C7.78397 24.516 7.28627 22.8279 7.4225 20.5617C7.42717 20.484 7.44124 20.4016 7.44737 20.323C7.44737 20.323 7.44737 20.323 7.44737 20.323ZM23.108 20.323C23.1141 20.4016 23.1282 20.484 23.1328 20.5617C23.2691 22.8279 22.7714 24.5147 21.8025 25.0749C21.516 25.2404 21.1816 25.321 20.778 25.321C19.7829 25.321 18.4668 24.7918 17.0382 23.8117C17.8786 23.0186 18.7005 22.1155 19.4924 21.1112C20.7762 20.9272 21.9867 20.6588 23.108 20.323C23.108 20.323 23.108 20.323 23.108 20.323ZM14.2432 21.3848C14.5867 21.3963 14.9284 21.4121 15.2777 21.4121C15.627 21.4121 15.9686 21.3963 16.3121 21.3848C15.9655 21.7482 15.6228 22.0802 15.2777 22.3944C14.9325 22.0802 14.5898 21.7482 14.2432 21.3848C14.2432 21.3848 14.2432 21.3848 14.2432 21.3848Z" fill="#F0FAEE" transform="translate(3.819 5.324)" />
        </g>
      </g>
      <g transform="matrix(0.017 -1 1 0.017 330.675 136)">
        <path d="M0.736608 34.9097C-2.80337 19.5764 6.75702 4.27659 22.0903 0.736608C37.4236 -2.80337 52.7234 6.75702 56.2634 22.0903C59.8034 37.4236 50.243 52.7234 34.9097 56.2634C19.5764 59.8034 4.27657 50.243 0.736608 34.9097Z" fill="#4BF16F" fill-rule="evenodd" />
        <path d="M19.0462 0.0549555C18.9615 0.0881834 18.8798 0.134423 18.8043 0.192899C18.1714 0.711891 17.6023 1.95157 17.4944 2.19542C17.4876 2.21068 17.4809 2.2259 17.4774 2.24039C16.9525 3.62726 16.8484 5.13248 17.1703 6.60091C17.4139 7.70089 17.8795 8.73932 18.5569 9.68782C20.132 11.8863 22.7018 13.4139 25.4236 13.7776C25.5148 13.7873 25.6028 13.7978 25.7609 13.816C25.7754 13.8195 25.9079 13.83 25.9281 13.8287C25.9281 13.8287 26.0266 13.8402 26.0266 13.8402C26.1662 13.8524 26.3092 13.8639 26.4451 13.8599C27.1352 13.8408 27.7956 13.767 28.4043 13.647C28.5083 13.623 28.613 13.6022 28.7169 13.5782C33.2743 12.5261 34.299 8.90296 34.6395 7.69553C34.674 7.57808 34.6968 7.48389 34.7238 7.42295C34.723 7.41968 34.723 7.41968 34.7255 7.41571C34.8944 6.97647 34.6777 6.4826 34.2377 6.31054C33.8017 6.14096 33.3077 6.35763 33.1355 6.79761C33.1355 6.79761 33.1323 6.79835 33.1323 6.79835C32.3306 8.86826 30.3769 9.89058 27.3307 9.84127C27.1043 9.83881 26.8517 9.8116 26.6258 9.78165C26.3304 9.74723 26.0313 9.69657 25.7495 9.63163C25.1883 9.49782 24.645 9.30853 24.1398 9.07626C21.1525 7.69634 19.2178 3.83633 20.1539 1.13329C20.2794 0.772535 20.1492 0.371597 19.8353 0.153288C19.5989 -0.0110893 19.3043 -0.0422707 19.0462 0.0549555ZM12.0615 3.4121C11.8724 3.45233 11.695 3.55827 11.5691 3.7242C10.5482 5.03742 9.64873 7.01015 9.60925 7.09113C9.60575 7.10562 9.60151 7.11683 9.59477 7.13209C8.08499 10.9664 9 15.7152 11.9292 19.2294C12.3897 19.7867 12.8857 20.305 13.3932 20.7693C13.3932 20.7693 13.5444 20.9055 13.5444 20.9055C13.9747 21.3021 14.4582 21.7515 15.0155 22.0607C15.2166 22.2059 15.4293 22.3415 15.6372 22.4714C15.6372 22.4714 15.7379 22.537 15.7379 22.537C15.7379 22.537 15.8218 22.5895 15.8218 22.5895C16.0322 22.7154 16.2466 22.8438 16.466 22.9641C16.466 22.9641 16.4693 22.9634 16.4693 22.9634C16.4868 22.9799 16.5092 22.9884 16.5292 23.0009C16.7759 23.1355 17.0235 23.2596 17.3498 23.4135C17.3498 23.4135 17.4373 23.4514 17.4373 23.4514C17.6914 23.5741 17.9465 23.6862 18.2074 23.7936C18.2339 23.8046 18.2604 23.8156 18.2869 23.8265C18.3768 23.8605 18.466 23.8912 18.5567 23.9284C18.5567 23.9284 18.6467 23.9624 18.6467 23.9624C18.6467 23.9624 18.7511 23.9999 18.7511 23.9999C18.9423 24.072 19.1279 24.1352 19.3893 24.2151C19.5597 24.2716 19.7399 24.3258 19.8558 24.3537C19.9073 24.3692 19.962 24.3839 20.09 24.4194C20.09 24.4194 20.3741 24.4941 20.3741 24.4941C20.3886 24.4976 20.453 24.51 20.4675 24.5135C20.6527 24.5597 20.8436 24.6012 21.0337 24.6394C21.0337 24.6394 21.3238 24.6955 21.3238 24.6955C21.5132 24.7305 21.7051 24.7614 21.9383 24.7931C21.9383 24.7931 22.044 24.8064 22.044 24.8064C22.052 24.8114 22.1399 24.8218 22.1472 24.8236C22.3158 24.8428 22.4877 24.8613 22.6589 24.8765C22.6589 24.8765 23.0505 24.9127 23.0505 24.9127C23.2466 24.9324 23.4742 24.955 23.7139 24.9408C24.891 24.8674 26.0147 24.7106 27.0574 24.4699C27.1808 24.4414 27.3035 24.4097 27.4237 24.3819C36.5568 22.0613 37.1441 13.7125 37.1488 13.6293C37.1718 13.2101 36.8899 12.8339 36.4791 12.744C36.0684 12.6541 35.6551 12.8795 35.5024 13.2705C33.9609 17.2045 29.8942 19.6553 25.1419 19.5074C24.922 19.5034 24.7071 19.4914 24.4382 19.468C24.393 19.4647 24.3543 19.46 24.28 19.4498C24.1234 19.438 23.9692 19.4223 23.7925 19.3981C23.7925 19.3981 23.5417 19.3637 23.5417 19.3637C23.3965 19.3425 23.2513 19.3212 23.0724 19.2873C23.0724 19.2873 22.954 19.2633 22.954 19.2633C22.7363 19.2246 22.5229 19.1747 22.3313 19.13C22.3313 19.13 21.8001 18.9927 21.8001 18.9927C21.6809 18.9655 21.5732 18.9287 21.4067 18.8748C21.4067 18.8748 21.315 18.8481 21.315 18.8481C21.315 18.8481 21.2226 18.8181 21.2226 18.8181C21.0859 18.7744 20.9485 18.7275 20.82 18.675C20.82 18.675 20.7308 18.6443 20.7308 18.6443C20.7236 18.6426 20.6481 18.6121 20.6401 18.6071C20.5284 18.5679 20.42 18.5279 20.3155 18.4905C20.0812 18.3941 19.8485 18.2904 19.5759 18.1618C19.5759 18.1618 19.4677 18.1081 19.4677 18.1081C16.9287 16.8916 14.8157 14.9712 13.5058 12.691C12.2943 10.6001 12.1275 7.53598 13.0608 4.49494C13.182 4.10096 13.0053 3.67653 12.6368 3.48797C12.4541 3.39328 12.25 3.36861 12.0615 3.4121ZM3.48699 8.01884C3.28884 8.06454 3.10394 8.18252 2.97776 8.36216C1.71851 10.1546 0.956256 12.277 0.87506 12.518C-1.38074 18.2486 1.05014 25.7843 4.46734 29.9452C4.5353 30.0321 4.60577 30.1151 4.67624 30.198C4.67624 30.198 4.72072 30.2425 4.72072 30.2425C4.78469 30.3269 4.8559 30.4131 4.87665 30.4288C4.91688 30.4845 4.97161 30.5437 4.99234 30.5594C5.05007 30.6316 5.10554 30.6941 5.2055 30.801C5.2055 30.801 5.57758 31.1974 5.57758 31.1974C5.6308 31.2501 5.68478 31.3061 5.70302 31.3258C5.77448 31.3983 5.84995 31.4732 5.92542 31.5481C5.92542 31.5481 6.10333 31.726 6.10333 31.726C6.15656 31.7787 6.20828 31.8249 6.24177 31.8514C6.41818 32.0227 6.5946 32.1941 6.78176 32.3527C6.79051 32.3609 6.79851 32.3659 6.8065 32.3709C6.8065 32.3709 6.87497 32.4304 6.87497 32.4304C7.03089 32.5723 7.18857 32.7069 7.3265 32.8153C7.3265 32.8153 7.93946 33.3066 7.93946 33.3066C7.94746 33.3116 8.01368 33.3613 8.01843 33.3671C8.01843 33.3671 8.10463 33.4293 8.10463 33.4293C8.28805 33.5717 8.4812 33.7118 8.67286 33.8454C8.7016 33.8661 8.72959 33.8836 8.75832 33.9044C8.94123 34.0297 9.1274 34.1544 9.32155 34.284C9.32155 34.284 9.50396 34.3924 9.50396 34.3924C9.65739 34.4938 9.81006 34.592 9.96774 34.6822C9.96848 34.6854 10.0437 34.7296 10.0437 34.7296C10.0437 34.7296 10.2014 34.8198 10.2014 34.8198C10.3918 34.9332 10.5887 35.0451 10.7361 35.1205C10.7449 35.1287 10.885 35.2024 10.8963 35.2066C11.0804 35.3078 11.2631 35.4025 11.4483 35.4931C11.4483 35.4931 12.3895 35.9394 12.3895 35.9394C12.5452 36.0061 12.7041 36.0721 12.8863 36.1497C12.9473 36.1767 13.0115 36.2029 13.075 36.2259C13.1022 36.2401 13.1327 36.2536 13.1512 36.2596C13.1512 36.2596 13.8411 36.5211 13.8411 36.5211C14.0917 36.6137 14.3401 36.6966 14.6432 36.7943C14.6432 36.7943 14.8049 36.8425 14.8049 36.8425C14.993 36.9017 15.1844 36.9601 15.3631 37.0078C15.4693 37.038 15.574 37.0617 15.6649 37.0852C15.7929 37.1207 15.932 37.1604 16.1414 37.2078C16.1599 37.2138 16.3081 37.248 16.3258 37.2507C16.536 37.3014 16.7479 37.3449 17.013 37.3965C17.0137 37.3998 17.0999 37.4175 17.0999 37.4175C17.3426 37.4607 17.578 37.5021 17.8868 37.5506C17.9368 37.5595 17.986 37.5653 17.9965 37.5663C18.2159 37.5977 18.445 37.6269 18.6314 37.6489C18.6492 37.6516 18.7451 37.6671 18.7629 37.6699C19.0115 37.6946 19.2561 37.7168 19.5694 37.7402C19.6219 37.7452 19.6776 37.7494 19.6841 37.7479C19.6841 37.7479 19.8618 37.7617 19.8618 37.7617C20.0774 37.7769 20.2938 37.7953 20.5212 37.7873C22.1326 37.7129 23.6768 37.5103 25.106 37.1803C25.106 37.1803 25.1093 37.1796 25.1093 37.1796C37.0208 34.4296 38.6022 23.9699 38.6186 23.8635C38.6756 23.4433 38.416 23.0448 38.0057 22.9275C37.6026 22.8119 37.1696 23.011 36.992 23.3975C34.8643 28.127 29.4435 30.9521 22.4928 30.9593C22.3247 30.957 22.1518 30.9491 21.9813 30.9371C21.9813 30.9371 21.6478 30.9149 21.6478 30.9149C21.4216 30.8987 21.194 30.876 20.9729 30.8518C20.9696 30.8526 20.8672 30.8386 20.8672 30.8386C20.671 30.8189 20.4726 30.7894 20.2992 30.7645C20.2992 30.7645 20.1008 30.735 20.1008 30.735C19.8807 30.7003 19.6598 30.6624 19.4446 30.6197C19.4446 30.6197 19.3197 30.5972 19.3197 30.5972C19.1255 30.5565 18.9386 30.5176 18.7502 30.4721C18.7357 30.4686 18.5876 30.4344 18.5738 30.4342C18.4434 30.4027 18.3122 30.368 18.144 30.3213C18.144 30.3213 17.3812 30.1143 17.3812 30.1143C17.3025 30.0846 17.2213 30.0589 17.1448 30.0389C16.9109 29.9595 16.6705 29.8816 16.4319 29.7964C16.3764 29.7784 16.3267 29.7557 16.2327 29.7192C16.0688 29.6613 15.9074 29.5994 15.6698 29.5037C15.6698 29.5037 15.5751 29.464 15.5751 29.464C15.4129 29.3988 15.2525 29.3264 15.1193 29.2682C15.0358 29.2327 14.9509 29.1908 14.8137 29.1301C14.691 29.0729 14.5691 29.019 14.4536 28.9635C14.4536 28.9635 14.2372 28.8561 14.2372 28.8561C14.0561 28.768 13.8832 28.671 13.7045 28.5789C13.6805 28.5639 13.6613 28.5547 13.6348 28.5437C13.4339 28.4293 13.2297 28.3156 12.9841 28.1705C12.9841 28.1705 12.2612 27.7217 12.2612 27.7217C12.0845 27.6085 11.9071 27.4921 11.7035 27.351C11.5158 27.2199 11.3347 27.0872 11.0905 26.9042C11.0905 26.9042 10.6407 26.5565 10.6407 26.5565C10.5843 26.5045 10.5245 26.4533 10.4543 26.4011C10.2966 26.2664 10.1397 26.1351 9.98055 25.9939C5.71655 22.2851 2.72464 13.1789 4.45879 9.1901C4.63343 8.79064 4.47699 8.32046 4.09193 8.10493C3.90302 7.99801 3.68513 7.97309 3.48699 8.01884Z" fill="#FFFFFF" transform="translate(9.028 9.629)" />
      </g>
      <path d="M5.34796 20.2368C-4.61795 38.1401 -0.278137 58.8715 15.2263 67.4295C30.7307 75.9876 50.6862 68.6664 60.6521 50.7632C70.6181 32.8601 66.2782 12.1286 50.7738 3.57062C35.2693 -4.98743 15.3139 2.33371 5.34796 20.2368ZM15.0364 30.2039L16.929 26.804L23.8772 32.05C23.8772 32.05 25.5668 29.0149 25.5668 29.0149C26.6385 27.0895 27.7485 26.0131 29.138 25.8195C30.5042 25.6331 32.2105 26.2901 34.2098 27.7712C34.2098 27.7712 42.4755 34.0956 42.4755 34.0956L40.5519 37.5513C40.5519 37.5513 32.9051 31.7076 32.9051 31.7076C31.8471 30.9249 31.0171 30.5462 30.4502 30.5778C29.8833 30.6093 29.3553 31.073 28.873 31.9395C28.873 31.9395 27.3583 34.6604 27.3583 34.6604L37.768 42.5524L35.8726 45.9574L15.0364 30.2039ZM14.1558 49.4863C14.1558 49.4863 18.143 42.3235 18.143 42.3235C20.0446 38.9073 24.3732 38.5938 28.668 42.0209C33.655 46.0015 33.747 49.345 31.1706 53.9733C31.1706 53.9733 29.9379 56.1877 29.9379 56.1877L35.1439 59.9805L33.1635 63.5383L14.1558 49.4863ZM29.625 21.6967C29.625 21.6967 33.6122 14.5338 33.6122 14.5338C35.5138 11.1177 39.8424 10.8042 44.1372 14.2312C49.1242 18.2119 49.2162 21.5554 46.6399 26.1837C46.6399 26.1837 45.4072 28.3981 45.4072 28.3981L50.6131 32.1909L48.6326 35.7487L29.625 21.6967ZM19.5693 48.6113L26.8029 53.8986C26.8029 53.8986 28.0538 51.6514 28.0538 51.6514C29.1362 49.7069 29.8146 47.7206 25.6877 45.047C24.0857 44.0151 22.3281 43.6553 21.0772 45.9024C21.0772 45.9024 19.5693 48.6113 19.5693 48.6113ZM35.0385 20.8218L42.2722 26.109C42.2722 26.109 43.523 23.8619 43.523 23.8619C44.6054 21.9174 45.2838 19.9311 41.1569 17.2574C39.5548 16.2256 37.7973 15.8658 36.5464 18.1129C36.5464 18.1129 35.0385 20.8218 35.0385 20.8218Z" fill="#5F0DC2" transform="matrix(0.017 -1 1 0.017 351.306 313)" />
      <path d="M30.967 0L44.6667 32.4158L33.8488 42.8503L19.1645 46.0001L0 16.4953L30.967 0ZM18.6483 32.2587L22.2915 30.318L23.5886 32.5471L28.0002 31.8307L31.06 28.5674L29.1555 24.3257L21.1434 28.5935L19.0252 25.0497L27.4074 20.5847L25.7446 16.7983L13.1784 23.4919L10.9713 19.9955L27.6396 11.1167L31.0506 18.6441L35.9681 29.4571L30.0315 35.658L21.5804 37.121L18.6483 32.2587Z" fill="#FF6809" fill-rule="evenodd" transform="matrix(0.017 -1 1 0.017 38.533 210)" />
      <g transform="matrix(0.191 -0.982 0.982 0.191 36.961 320)">
        <path d="M0 28.5C0 12.7599 12.7599 0 28.5 0C44.2401 0 57 12.7599 57 28.5C57 44.2401 44.2401 57 28.5 57C12.7599 57 0 44.2401 0 28.5Z" fill="#FF6809" fill-rule="evenodd" />
        <g transform="translate(7.225 11.239)">
          <path d="M0.0160561 0.0963364C0.0160561 0.0963364 0.00802803 0.0642223 0 0C0.0160561 0.0642223 0.0160561 0.0963364 0.0160561 0.0963364C0.0160561 0.0963364 0.0160561 0.0963364 0.0160561 0.0963364Z" fill="#F0FAEE" transform="translate(19.653 26.3)" />
          <path d="M0.301056 4.42194C0.301056 4.42194 0 3.31807 0.401407 2.4149C0.802816 1.51173 0.802816 0.909619 0 0.00644994C1.60563 -0.0939023 2.20774 1.00997 2.20774 1.00997C2.20774 1.00997 2.22782 1.13762 2.22782 1.13762C2.32255 1.75258 2.00463 2.33703 1.46835 2.65334C0.978634 2.94155 0.451986 3.4682 0.301056 4.42194C0.301056 4.42194 0.301056 4.42194 0.301056 4.42194Z" fill="#F0FAEE" transform="translate(21.676 2.502)" />
          <path d="M30.7939 26.1799C30.8099 26.0113 31.0668 23.7393 30.4888 22.6796C29.2846 26.0835 28.0804 29.1985 24.5721 31.4062C25.0698 30.4027 25.8726 28.797 26.6754 26.3886C24.267 29.5999 19.4501 32.8111 15.8374 33.0118C18.278 31.6631 19.6508 29.929 20.2529 28.797C20.2529 28.797 18.848 29.1985 17.138 29.3992C19.4501 27.9942 21.0557 25.4894 20.2529 21.5717C18.6473 26.5893 16.4395 28.1949 13.5253 28.492C10.6191 28.797 8.00994 27.2877 8.00994 27.2877C8.00994 27.2877 9.01346 27.1914 9.01346 27.1914C9.01346 27.1914 6.40431 25.1844 7.31149 22.5752C7.35163 22.4468 7.3998 22.3263 7.456 22.2139C8.11431 20.7528 10.3542 21.4914 10.1214 23.073C10.1214 23.073 10.1214 23.081 10.1214 23.081C10.1214 23.081 10.8198 24.9837 12.7225 24.4779C13.3326 23.4824 13.734 22.4708 13.734 22.4708C13.734 22.4708 14.0311 23.7794 14.0311 23.7794C14.0311 23.7794 15.436 23.1773 15.436 22.0694C16.6402 22.527 16.9453 23.097 17.0175 23.3459C16.8088 22.222 14.9944 14.4908 5.38473 14.6032C5.38473 14.6032 3.70684 16.1607 3.70684 16.1607C3.59445 16.2651 3.41783 16.1768 3.43389 16.0323C3.43389 16.0323 3.56234 14.7477 3.56234 14.7477C3.56234 14.7477 3.67473 14.6354 3.67473 14.6354C3.64262 14.6434 3.60248 14.6354 3.57037 14.6354C3.57037 14.6354 3.56234 14.7477 3.56234 14.7477C3.56234 14.7477 2.90403 15.3579 2.90403 15.3579C2.79163 15.4623 2.61501 15.3739 2.63107 15.2294C2.63107 15.2294 2.71135 14.4106 2.71135 14.4106C1.31445 13.8165 1.186 12.243 1.186 12.243C1.186 12.243 -0.556114 11.7532 0.182478 9.52944C0.583886 8.32521 1.54727 8.20479 1.9567 8.30113C2.47853 8.42155 3.01642 8.42958 3.51417 8.22887C4.2367 7.93986 5.15994 7.38592 5.8022 6.31817C7.00642 4.31113 8.81276 3.50831 12.7225 3.50831C17.9006 3.50831 19.988 5.09789 20.2288 5.29056C20.0843 5.12197 19.2092 3.95789 21.0557 2.20775C22.8781 0.473662 22.549 0.0642252 22.4767 0C22.7497 0.0802817 26.2901 1.28451 26.6754 5.91676C27.0769 10.7337 21.4571 11.7372 21.4571 11.7372C21.4571 11.7372 28.6825 13.1421 28.7788 6.31817C30.1918 7.12099 33.098 10.1316 33.4994 16.6585C33.8928 22.9846 30.9625 26.0113 30.7939 26.1799C30.7939 26.1799 30.7939 26.1799 30.7939 26.1799Z" fill="#F0FAEE" transform="translate(2.627 2.914)" />
          <path d="M0.112394 0L0 0.112394C0 0.112394 0.00802851 0 0.00802851 0C0.0401411 0 0.0802817 0.00802803 0.112394 0C0.112394 0 0.112394 0 0.112394 0Z" fill="#F0FAEE" transform="translate(6.19 17.55)" />
          <path d="M0.112394 0L0 0.112394C0 0.112394 0.00802851 0 0.00802851 0C0.0401411 0 0.0802817 0.00802803 0.112394 0C0.112394 0 0.112394 0 0.112394 0Z" fill="#F0FAEE" transform="translate(6.19 17.55)" />
        </g>
      </g>
      <path d="M0.13649 17.9682C0.108017 17.9074 0.0907898 17.8409 0.0839691 17.7716C0.0722656 17.6222 0.117722 17.4754 0.210739 17.3603C0.210739 17.3603 5.34837 11.1301 5.34837 11.1301C5.34837 11.1301 0.345795 9.15642 0.345795 9.15642C0.145798 9.07828 0.0116119 8.88185 0.00062561 8.65938C-0.00952148 8.43886 0.109741 8.23039 0.302017 8.13287C0.302017 8.13287 16.2277 0.0567474 16.2277 0.0567474C16.42 -0.0407562 16.6486 -0.0110931 16.8123 0.133972C16.9732 0.277985 17.0395 0.50885 16.9765 0.722778C16.9765 0.722778 11.8162 18.2469 11.8162 18.2469C11.7541 18.4579 11.5763 18.6111 11.3669 18.6373C11.1556 18.6644 10.9502 18.5599 10.8404 18.3705C10.8404 18.3705 8.0211 13.4748 8.0211 13.4748C8.0211 13.4748 3.03365 19.7963 3.03365 19.7963C2.94438 19.9095 2.81329 19.9833 2.67059 19.9974C2.52786 20.0116 2.38852 19.9682 2.27872 19.8734C2.27872 19.8734 0.277313 18.1539 0.277313 18.1539C0.217789 18.1016 0.170532 18.0407 0.13649 17.9682Z" fill="#7917F1" transform="matrix(0.017 -1 1 0.017 184.674 258)" />
      <path d="M17.7383 0.146652C15.9751 -0.392395 14.1065 0.601166 13.5674 2.36438C13.5674 2.36438 0.146606 46.2617 0.146606 46.2617C-0.392426 48.025 0.601135 49.8936 2.36438 50.4326C2.36438 50.4326 46.2617 63.8534 46.2617 63.8534C48.0249 64.3925 49.8936 63.3989 50.4312 61.6404C50.4312 61.6404 63.8534 17.7383 63.8534 17.7383C64.3925 15.9752 63.3989 14.1065 61.6404 13.5688C61.6404 13.5688 17.7383 0.146652 17.7383 0.146652ZM30.3009 46.1221C28.8381 50.9066 25.3656 52.2281 21.2687 50.9756C17.5646 49.8431 15.6534 46.5432 15.2686 43.9043C15.2686 43.9043 19.7298 42.7777 19.7298 42.7777C20.0615 44.2855 20.8621 45.6144 22.4523 46.1006C23.9722 46.5653 25.0284 46.2387 25.7348 43.9283C25.7348 43.9283 30.3375 28.8734 30.3375 28.8734L35.1267 30.3376C35.1267 30.3376 30.3009 46.1221 30.3009 46.1221ZM38.5592 56.2618C34.3173 54.9649 32.5621 52.0912 32.0306 49.029C32.0306 49.029 36.3545 47.7326 36.3545 47.7326C36.843 49.6309 37.4417 51.4863 39.696 52.1755C41.5901 52.7545 42.8705 52.1129 43.2708 50.8034C43.7484 49.2413 42.8896 48.3702 41.0872 46.8219C41.0872 46.8219 40.0963 45.982 40.0963 45.982C37.228 43.5708 35.5721 41.1417 36.7103 37.4189C37.757 33.9954 41.1693 32.185 45.2475 33.4318C48.1519 34.3198 49.9289 35.9677 50.6256 39.0753C50.6256 39.0753 46.3719 40.2756 46.3719 40.2756C46.0166 38.6276 45.3434 37.8184 44.0292 37.4165C42.6917 37.0076 41.5849 37.6 41.246 38.7084C40.8271 40.0788 41.5049 40.8894 43.2042 42.3398C43.2042 42.3398 44.1953 43.1797 44.1953 43.1797C47.5742 46.0283 49.2439 48.3951 48.0771 52.2115C46.8203 56.3225 42.8993 57.5887 38.5592 56.2618Z" fill="#F7CE00" transform="matrix(0.017 -1 1 0.017 100.98 307)" />
      <g transform="matrix(0.719 0.695 -0.695 0.719 101.935 47.58)">
        <path d="M3.5168 44.0814C-4.2601 29.4551 1.29239 11.2938 15.9186 3.51684C30.5449 -4.26008 48.7062 1.29241 56.4832 15.9186C64.2601 30.5449 58.7076 48.7063 44.0813 56.4832C29.4551 64.2601 11.2937 58.7076 3.5168 44.0814Z" fill="#4CCBEE" fill-rule="evenodd" />
        <g transform="translate(12.81 11.501)">
          <path d="M27.2033 37.3311C18.0968 42.1731 6.84179 38.7899 2.12666 29.9221C-1.61767 22.88 -0.349387 14.1763 5.39272 8.4467C6.58975 7.14111 6.00683 3.32486 5.75854 2.23018C5.75854 2.23018 5.12895 0 5.12895 0C5.12895 0 7.13473 1.05236 7.13473 1.05236C8.8746 2.0231 12.2214 3.92369 13.528 3.45196C21.9055 1.00495 31.0156 4.74798 35.0835 12.3987C39.7986 21.2665 36.3098 32.4891 27.2033 37.3311C27.2033 37.3311 27.2033 37.3311 27.2033 37.3311Z" fill="#F0FAEE" />
          <path d="M15.6358 12.0117C16.1562 11.735 16.7633 11.4122 17.3356 11.4424C17.9079 11.4727 18.4917 11.9429 18.7634 12.2445C19.1217 12.5001 19.0407 12.7662 18.873 13.0784C18.7052 13.3906 18.659 13.3037 18.1677 13.0073C17.6764 12.711 17.2718 12.3685 16.0576 13.0141C14.8434 13.6597 14.7276 14.2789 14.3516 15.0364C13.9757 15.7939 13.8947 16.06 13.5825 15.8914C13.2704 15.7228 13.1317 15.462 13.3805 14.8837C13.5425 14.3514 13.8722 13.507 14.3406 12.9234C14.7223 12.3859 15.1155 12.2883 15.6358 12.0117C15.6358 12.0117 15.6358 12.0117 15.6358 12.0117C15.6358 12.0117 15.6358 12.0117 15.6358 12.0117ZM11.9457 18.8806C12.9169 19.0333 14.1888 18.9146 16.357 17.7618C18.5252 16.6089 19.7627 15.1703 20.1792 14.2797C20.3874 13.8344 20.6129 14.0492 20.7458 14.09C20.8383 14.2639 21.0174 14.3916 20.8959 14.7908C20.8149 15.0569 19.8085 16.9302 17.993 18.1186C16.2641 19.2609 13.7952 20.6852 11.5407 20.2111C11.1419 20.0887 11.0437 19.6948 11.1709 19.5156C11.2519 19.2495 11.3791 19.0703 11.5526 18.9781C11.726 18.8859 11.8128 18.8398 11.9457 18.8806C11.9457 18.8806 11.9457 18.8806 11.9457 18.8806C11.9457 18.8806 11.9457 18.8806 11.9457 18.8806ZM0.528801 16.0296C-0.811772 13.5083 0.455227 9.82362 3.66418 8.1174C7.6537 5.99614 12.5035 8.21276 14.452 7.0652C16.1866 6.14292 17.7719 1.17379 19.4197 0.297626C21.1543 -0.624655 22.4662 0.796612 23.0209 1.8399C23.5294 2.79623 24.1533 4.80643 23.8869 6.39779C23.6206 7.98915 23.4181 8.65442 22.3311 9.12084C21.0707 9.67951 16.6603 7.45229 15.0529 8.19541C13.012 9.16911 10.802 15.4741 7.41955 17.2725C5.33808 18.3793 4.5923 18.4412 3.66733 18.3755C2.34352 18.1872 1.26842 17.4206 0.528801 16.0296C0.528801 16.0296 0.528801 16.0296 0.528801 16.0296C0.528801 16.0296 0.528801 16.0296 0.528801 16.0296Z" fill="#4CCBEE" transform="translate(11.345 13.394)" />
        </g>
      </g>
      <path d="M0.136505 17.9681C0.108002 17.9073 0.0907898 17.8409 0.0839539 17.7715C0.0722351 17.6222 0.117706 17.4754 0.210754 17.3603C0.210754 17.3603 5.34836 11.13 5.34836 11.13C5.34836 11.13 0.345764 9.15642 0.345764 9.15642C0.145782 9.07828 0.0116272 8.88185 0.000610352 8.65936C-0.00949097 8.43884 0.109741 8.23036 0.302002 8.13286C0.302002 8.13286 16.2277 0.0567627 16.2277 0.0567627C16.4199 -0.040741 16.6485 -0.0110931 16.8123 0.133972C16.9732 0.278 17.0395 0.50885 16.9764 0.722794C16.9764 0.722794 11.8161 18.2469 11.8161 18.2469C11.7541 18.4579 11.5763 18.6111 11.3669 18.6372C11.1555 18.6643 10.9502 18.5598 10.8403 18.3705C10.8403 18.3705 8.02109 13.4748 8.02109 13.4748C8.02109 13.4748 3.03363 19.7963 3.03363 19.7963C2.94437 19.9095 2.81329 19.9832 2.67056 19.9974C2.52786 20.0115 2.38852 19.9682 2.27872 19.8734C2.27872 19.8734 0.277313 18.1539 0.277313 18.1539C0.217773 18.1016 0.170502 18.0406 0.136505 17.9681Z" fill="#7917F1" transform="translate(264.675 146)" />
      <g transform="translate(185.37 180)">
        <path d="M59.0769 57.6052C49.6626 67.3381 29.908 63.5405 14.9538 49.123C-0.000369331 34.7055 -4.49125 15.1278 4.92308 5.39484C14.3374 -4.33808 34.092 -0.540494 49.0462 13.877C64.0004 28.2945 68.4913 47.8722 59.0769 57.6052Z" fill="#4BF16F" fill-rule="evenodd" />
        <g transform="translate(7.523 11.318)">
          <path d="M11.4183 1.59676C11.4183 1.59676 5.10918 0.020998 5.10918 0.020998C4.87323 -0.0387564 4.62871 0.0311995 4.46816 0.203107C4.46816 0.203107 0.171187 4.80375 0.171187 4.80375C0.0106201 4.97566 -0.0414314 5.22324 0.0339489 5.4549C0.0339489 5.4549 2.04775 11.6313 2.04775 11.6313C2.12307 11.8613 2.3156 12.0405 2.55069 12.0995C2.55069 12.0995 8.86138 13.6736 8.86138 13.6736C9.09642 13.7309 9.34016 13.6618 9.50071 13.4899C9.50071 13.4899 13.7977 8.88926 13.7977 8.88926C13.9582 8.71737 14.0103 8.4698 13.9349 8.23811C13.9349 8.23811 11.9212 2.06502 11.9212 2.06502C11.8836 1.9492 11.816 1.8467 11.7295 1.76615C11.6421 1.68481 11.5358 1.62544 11.4174 1.59599C11.4174 1.59599 11.4183 1.59676 11.4183 1.59676ZM28.9629 25.6748C28.9629 25.6748 27.9117 25.4116 27.9117 25.4116C27.8719 25.4015 27.8321 25.4136 27.8052 25.4424C27.8052 25.4424 27.0887 26.2096 27.0887 26.2096C27.0618 26.2384 27.0534 26.2796 27.0654 26.3177C27.0654 26.3177 27.4009 27.3472 27.4009 27.3472C27.4137 27.3861 27.4451 27.4153 27.4848 27.4254C27.4848 27.4254 28.5369 27.6877 28.5369 27.6877C28.5758 27.697 28.6164 27.6858 28.6433 27.657C28.6433 27.657 29.3599 26.8898 29.3599 26.8898C29.3868 26.861 29.3952 26.8198 29.3823 26.7809C29.3823 26.7809 29.046 25.7522 29.046 25.7522C29.0404 25.7327 29.0292 25.7159 29.0148 25.7025C29.0003 25.6891 28.9828 25.679 28.9629 25.6748C28.9629 25.6748 28.9629 25.6748 28.9629 25.6748Z" fill="#F0FAEE" transform="translate(11.677 9.498)" />
          <path d="M20.6398 3.20961C20.6398 3.20961 19.6678 0.194347 19.6678 0.194347C19.6374 0.0995636 19.5586 0.0277653 19.4611 0.00658417C19.3635 -0.0145969 19.262 0.0159874 19.194 0.08881C19.194 0.08881 12.8248 6.90643 12.8248 6.90643C12.8248 6.90643 11.9204 4.13458 11.9204 4.13458C11.8828 4.01874 11.8152 3.91623 11.7287 3.83569C11.6422 3.75516 11.535 3.69498 11.4167 3.66552C11.4167 3.66552 11.4175 3.66632 11.4175 3.66632C11.4175 3.66632 5.10838 2.09056 5.10838 2.09056C4.87245 2.03078 4.62793 2.10076 4.46816 2.2718C4.46816 2.2718 0.171188 6.87247 0.171188 6.87247C0.0106201 7.04435 -0.0414314 7.29193 0.0339489 7.52361C0.0339489 7.52361 2.04775 13.7 2.04775 13.7C2.12307 13.93 2.3156 14.1092 2.55069 14.1682C2.55069 14.1682 8.8614 15.7423 8.8614 15.7423C9.09562 15.8005 9.34017 15.7305 9.50071 15.5586C9.50071 15.5586 20.5156 3.76526 20.5156 3.76526C20.6548 3.61624 20.7015 3.40326 20.6398 3.20961C20.6398 3.20961 20.6398 3.20961 20.6398 3.20961ZM7.83681 12.0194C7.83681 12.0194 4.9687 11.3043 4.9687 11.3043C4.86193 11.2777 4.77456 11.1964 4.74057 11.0919C4.74057 11.0919 3.82513 8.28438 3.82513 8.28438C3.78941 8.17829 3.81418 8.06519 3.88693 7.98729C3.88693 7.98729 5.84047 5.89569 5.84047 5.89569C5.91323 5.81779 6.02371 5.7861 6.13212 5.81263C6.13212 5.81263 9.0003 6.52939 9.0003 6.52939C9.0003 6.52939 8.99946 6.52859 8.99946 6.52859C9.05328 6.54229 9.10098 6.56929 9.14084 6.60641C9.18071 6.64353 9.21023 6.69001 9.22845 6.74179C9.22845 6.74179 10.1438 9.54767 10.1438 9.54767C10.1779 9.6538 10.1531 9.7669 10.0804 9.8448C10.0804 9.8448 8.12684 11.9364 8.12684 11.9364C8.05487 12.0135 7.94361 12.046 7.83681 12.0194C7.83681 12.0194 7.83681 12.0194 7.83681 12.0194Z" fill="#F0FAEE" transform="translate(22.741 17.655)" />
          <path d="M11.4191 0.000780106C11.4191 0.000780106 0.171198 3.20782 0.171198 3.20782C0.0106258 3.37975 -0.0414429 3.62732 0.0339603 3.85901C0.0339603 3.85901 2.04789 10.0355 2.04789 10.0355C2.12321 10.2655 2.31573 10.4447 2.55083 10.5037C2.55083 10.5037 13.7986 7.29343 13.7986 7.29343C13.9592 7.12153 14.0113 6.87392 13.9359 6.64227C13.9359 6.64227 11.9221 0.469057 11.9221 0.469057C11.8844 0.35322 11.8168 0.250721 11.7302 0.170177C11.6429 0.0888309 11.5366 0.0294628 11.4182 0C11.4182 0 11.4191 0.000780106 11.4191 0.000780106Z" fill="#F0FAEE" transform="translate(11.677 11.094)" />
          <path d="M9.3721 1.59679C9.3721 1.59679 3.06252 0.0210075 3.06252 0.0210075C2.82656 -0.0387669 2.58202 0.0312042 2.42144 0.203119C2.42144 0.203119 0 11.6307 0 11.6307C0.075325 11.8607 0.267885 12.04 0.502993 12.099C0.502993 12.099 6.81416 13.6731 6.81416 13.6731C7.05006 13.7312 7.2938 13.6621 7.45437 13.4902C7.45437 13.4902 9.87508 2.06507 9.87508 2.06507C9.83737 1.94923 9.76979 1.84672 9.68327 1.7662C9.59592 1.68485 9.48962 1.62548 9.37124 1.59602C9.37124 1.59602 9.3721 1.59679 9.3721 1.59679Z" fill="#F0FAEE" transform="translate(13.724 9.498)" />
          <path d="M46.8358 37.4544C46.8358 37.4544 44.8221 31.2813 44.8221 31.2813C44.7844 31.1654 44.7168 31.0629 44.6303 30.9824C44.5438 30.9018 44.4367 30.8417 44.3183 30.8122C44.3183 30.8122 44.3191 30.813 44.3191 30.813C44.3191 30.813 38.01 29.2372 38.01 29.2372C37.7749 29.1783 37.5264 29.2508 37.3603 29.4286C37.3603 29.4286 33.0807 34.0107 33.0807 34.0107C32.9154 34.1877 32.8595 34.4411 32.9348 34.6711C32.9348 34.6711 34.9486 40.8475 34.9486 40.8475C35.024 41.0792 35.2148 41.2569 35.4515 41.3158C35.4515 41.3158 38.3619 42.0417 38.3619 42.0417C38.6284 42.1078 38.8625 41.8555 38.7762 41.5947C38.7762 41.5947 36.7251 35.4311 36.7251 35.4311C36.6919 35.3258 36.7166 35.2111 36.7909 35.1315C36.7909 35.1315 38.7413 33.0433 38.7413 33.0433C38.8141 32.9654 38.9237 32.9328 39.0263 32.9588C39.0263 32.9588 41.8995 33.677 41.8995 33.677C41.8995 33.677 41.8987 33.6762 41.8987 33.6762C41.9525 33.6899 42.0002 33.7169 42.04 33.754C42.0799 33.7911 42.1094 33.8376 42.1276 33.8894C42.1276 33.8894 43.0449 36.7018 43.0449 36.7018C43.078 36.8022 43.0531 36.9137 42.9804 36.9916C42.9804 36.9916 41.3891 38.6953 41.3891 38.6953C41.3211 38.7681 41.2968 38.8722 41.3264 38.9678C41.3568 39.0627 41.4348 39.1353 41.5324 39.1581C41.5324 39.1581 44.668 39.8721 44.668 39.8721C44.8615 39.9162 45.0653 39.8541 45.2014 39.7085C45.2014 39.7085 46.6883 38.1165 46.6883 38.1165C46.8552 37.9378 46.9111 37.6844 46.8358 37.4544C46.8358 37.4544 46.8358 37.4544 46.8358 37.4544ZM15.4546 8.23726C15.4546 8.23726 13.441 2.06417 13.441 2.06417C13.4033 1.94834 13.3357 1.84584 13.2492 1.76529C13.1627 1.68475 13.0555 1.62458 12.9372 1.59513C12.9372 1.59513 12.938 1.59591 12.938 1.59591C12.938 1.59591 6.6289 0.0201386 6.6289 0.0201386C6.39382 -0.038837 6.14527 0.0337199 5.97919 0.211548C5.97919 0.211548 0.0750838 6.53291 0.0750838 6.53291C0.00706941 6.60573 -0.0171819 6.70979 0.0124244 6.80544C0.0428103 6.90022 0.120837 6.97288 0.218458 6.99568C0.218458 6.99568 3.35401 7.70967 3.35401 7.70967C3.54757 7.75371 3.75051 7.69093 3.88654 7.54528C3.88654 7.54528 7.36098 3.8253 7.36098 3.8253C7.43373 3.7474 7.54337 3.71491 7.64602 3.74082C7.64602 3.74082 10.5192 4.45905 10.5192 4.45905C10.5192 4.45905 10.5192 4.45905 10.5192 4.45905C10.573 4.47274 10.6207 4.49974 10.6605 4.53686C10.7004 4.57397 10.7299 4.62045 10.7482 4.67226C10.7482 4.67226 11.6654 7.48461 11.6654 7.48461C11.6985 7.58504 11.6736 7.6965 11.6009 7.77441C11.6009 7.77441 8.12643 11.4944 8.12643 11.4944C7.9904 11.64 7.94184 11.8465 8.00019 12.037C8.00019 12.037 8.93231 15.1102 8.93231 15.1102C8.96189 15.2058 9.03994 15.2785 9.13676 15.3022C9.23432 15.3233 9.33662 15.2919 9.40463 15.2191C9.40463 15.2191 15.3079 8.89857 15.3079 8.89857C15.474 8.72074 15.53 8.4673 15.4546 8.23726C15.4546 8.23726 15.4546 8.23726 15.4546 8.23726Z" fill="#F0FAEE" />
        </g>
      </g>
      <path d="M29.9056 14.0277C29.85 14.0925 29.7815 14.1468 29.7042 14.1902C29.5359 14.2802 29.3397 14.3008 29.1547 14.2488C29.1547 14.2488 19.0901 11.3137 19.0901 11.3137C19.0901 11.3137 19.4901 18.2634 19.4901 18.2634C19.507 18.5408 19.35 18.8002 19.0958 18.9266C18.8434 19.0508 18.5352 19.0152 18.3171 18.8363C18.3171 18.8363 0.255646 4.01941 0.255646 4.01941C0.0375824 3.84053 -0.0514832 3.55374 0.0295105 3.28537C0.110832 3.02083 0.344856 2.82455 0.629051 2.79057C0.629051 2.79057 23.9102 0.00515747 23.9102 0.00515747C24.1905 -0.0285034 24.4659 0.104797 24.6098 0.340393C24.7558 0.577759 24.7448 0.875015 24.5828 1.10191C24.5828 1.10191 20.3849 6.94395 20.3849 6.94395C20.3849 6.94395 30.475 9.65424 30.475 9.65424C30.6556 9.7027 30.8128 9.82095 30.9066 9.98337C31.0004 10.1458 31.0251 10.3335 30.9737 10.5122C30.9737 10.5122 30.0466 13.7658 30.0466 13.7658C30.0176 13.8632 29.972 13.9504 29.9056 14.0277Z" fill="#7917F1" transform="translate(84 157)" />
      <g transform="translate(169.675 0)">
        <path d="M36.9587 30.597C31.1061 39.963 18.7691 42.8112 9.40304 36.9587C0.037018 31.1061 -2.81123 18.7691 3.04131 9.40305C8.89387 0.0370329 21.2309 -2.81122 30.597 3.04131C39.963 8.89385 42.8112 21.2309 36.9587 30.597Z" fill="#F7CE00" fill-rule="evenodd" />
        <path d="M0.257251 14.2904C0.294865 15.3677 0.881512 16.3355 1.78809 16.8155C2.14051 17.0024 2.71235 17.2174 3.09079 17.332C3.41513 17.4378 7.47626 19.0854 9.95966 20.099C9.95966 20.099 9.95583 20.0906 9.95579 20.0905C10.5285 20.3558 11.159 20.4982 11.8201 20.4751C14.2391 20.3906 16.1326 18.1898 16.0411 15.5693C15.9496 12.9488 13.9072 10.8855 11.4882 10.97C11.4882 10.97 10.1451 11.0168 10.1451 11.0168C10.0771 10.8225 10.0101 10.5714 10.0003 10.2899C9.99044 10.0073 10.0398 9.75284 10.094 9.55452C10.094 9.55452 11.4371 9.50764 11.4371 9.50764C13.8562 9.42315 15.7496 7.22234 15.6581 4.60188C15.5666 1.98138 13.5242 -0.0819807 11.1052 0.00250435C10.4441 0.0255756 9.82505 0.211574 9.27224 0.516172C9.27227 0.516083 9.2755 0.50748 9.2755 0.50748C6.86851 1.69182 2.93245 3.61839 2.6206 3.74458C2.24674 3.88721 1.69141 4.14197 1.35289 4.35292C0.482009 4.89504 -0.0357084 5.90136 0.00191975 6.97874C0.0568743 8.55249 1.27392 9.79565 2.73789 9.80569C2.70162 10.0309 2.67937 10.2791 2.68865 10.5452C2.69796 10.8113 2.73746 11.0573 2.78936 11.2794C1.32964 11.3916 0.202282 12.7166 0.257251 14.2904C0.257251 14.2904 0.257251 14.2904 0.257251 14.2904ZM4.15099 10.4942C4.14112 10.2116 4.19043 9.95714 4.24469 9.75882C4.24469 9.75882 5.66133 9.70934 5.66133 9.70934C5.62564 9.93303 5.6041 10.1793 5.61332 10.4431C5.62253 10.7068 5.6612 10.951 5.71239 11.1717C5.71239 11.1717 4.29576 11.2211 4.29576 11.2211C4.22778 11.0268 4.16081 10.7757 4.15099 10.4942C4.15099 10.4942 4.15099 10.4942 4.15099 10.4942ZM8.72948 15.8246C8.66611 14.0103 9.92665 12.4886 11.5392 12.4323C13.1518 12.376 14.5154 13.806 14.5788 15.6204C14.6422 17.4348 13.3816 18.9564 11.769 19.0128C10.1565 19.0691 8.79284 17.639 8.72948 15.8246C8.72948 15.8246 8.72948 15.8246 8.72948 15.8246ZM8.34649 4.85716C8.28312 3.04279 9.54366 1.52111 11.1562 1.46481C12.7688 1.40849 14.1324 2.83851 14.1958 4.65292C14.2592 6.46729 12.9986 7.98898 11.386 8.04527C9.77346 8.10159 8.40985 6.67154 8.34649 4.85716C8.34649 4.85716 8.34649 4.85716 8.34649 4.85716Z" fill="#F0FAEE" transform="translate(11.966 9.367)" />
      </g>
      <path d="M34.9553 11.3348C34.888 11.1528 34.7435 11.0043 34.5603 10.926C34.5603 10.926 9.11359 0.0594635 9.11359 0.0594635C8.93042 -0.0187683 8.72385 -0.0202026 8.54694 0.0575409C8.36746 0.134201 8.23297 0.28215 8.17633 0.466202C8.17633 0.466202 0.0313873 26.1819 0.0313873 26.1819C-0.0553284 26.4515 0.0419312 26.7476 0.270416 26.9319C0.270416 26.9319 9.48901 34.2528 9.48901 34.2528C9.53775 34.2938 9.5957 34.3273 9.65677 34.3533C9.71783 34.3794 9.77945 34.397 9.84521 34.4049C9.84521 34.4049 21.4912 35.9939 21.4912 35.9939C21.7818 36.0312 22.0585 35.8948 22.1936 35.6459C22.1936 35.6459 34.9205 11.8869 34.9205 11.8869C35.0128 11.718 35.0251 11.5179 34.9553 11.3348ZM25.8688 17.5205L13.6162 12.2882L12.5613 15.6066L24.2263 20.588L19.3687 29.6526L12.013 28.7618L11.9577 28.715L6.28009 24.0604L7.54895 20.0639L10.7215 21.4187L10.2291 22.97L13.5413 25.2464L17.4037 26.0338L19.4869 22.1566L8.38678 17.4164L11.4436 7.75925L27.4387 14.5897L25.8688 17.5205Z" fill="#FF6E55" transform="translate(250.675 172)" />
      <g transform="translate(181.675 280)">
        <path d="M0.56861 26.9478C-2.16401 15.1116 5.21594 3.30123 17.0522 0.56861C28.8884 -2.16401 40.6988 5.21594 43.4314 17.0522C46.164 28.8884 38.7841 40.6988 26.9478 43.4314C15.1116 46.164 3.30121 38.7841 0.56861 26.9478Z" fill="#4BF16F" fill-rule="evenodd" />
        <path d="M14.7023 0.0424218C14.637 0.0680714 14.5739 0.103765 14.5156 0.148904C14.0271 0.54953 13.5877 1.50648 13.5044 1.69471C13.4992 1.70649 13.494 1.71824 13.4913 1.72942C13.0861 2.79999 13.0057 3.96191 13.2542 5.09544C13.4423 5.94454 13.8017 6.74614 14.3247 7.47831C15.5405 9.17542 17.5242 10.3546 19.6252 10.6353C19.6956 10.6428 19.7635 10.6509 19.8856 10.665C19.8968 10.6677 19.9991 10.6758 20.0147 10.6748C20.0147 10.6748 20.0907 10.6836 20.0907 10.6836C20.1985 10.6931 20.3088 10.7019 20.4137 10.6988C20.9465 10.6841 21.4563 10.6271 21.9261 10.5345C22.0064 10.516 22.0872 10.5 22.1674 10.4814C25.6854 9.66926 26.4764 6.87246 26.7393 5.94041C26.7659 5.84975 26.7835 5.77703 26.8043 5.73C26.8037 5.72747 26.8037 5.72747 26.8056 5.72441C26.936 5.38535 26.7688 5.00412 26.4291 4.87129C26.0925 4.74039 25.7112 4.90765 25.5783 5.24728C25.5783 5.24728 25.5758 5.24785 25.5758 5.24785C24.9569 6.84568 23.4488 7.63483 21.0974 7.59677C20.9226 7.59487 20.7276 7.57387 20.5532 7.55074C20.3253 7.52418 20.0944 7.48507 19.8768 7.43494C19.4436 7.33165 19.0242 7.18553 18.6342 7.00624C16.3282 5.94104 14.8348 2.96137 15.5574 0.87482C15.6542 0.596344 15.5537 0.286847 15.3115 0.118327C15.129 -0.00856018 14.9016 -0.0326304 14.7023 0.0424218ZM9.31067 2.6339C9.16467 2.66495 9.02772 2.74674 8.93052 2.87482C8.14245 3.88854 7.44815 5.41134 7.41768 5.47386C7.41498 5.48504 7.4117 5.49369 7.40649 5.50547C6.24105 8.46527 6.94738 12.131 9.20849 14.8437C9.56399 15.2739 9.94688 15.674 10.3386 16.0325C10.3386 16.0325 10.4553 16.1376 10.4553 16.1376C10.7875 16.4438 11.1607 16.7906 11.5909 17.0293C11.7462 17.1414 11.9103 17.2461 12.0708 17.3463C12.0708 17.3463 12.1485 17.397 12.1485 17.397C12.1485 17.397 12.2133 17.4375 12.2133 17.4375C12.3758 17.5347 12.5413 17.6338 12.7106 17.7267C12.7106 17.7267 12.7131 17.7261 12.7131 17.7261C12.7266 17.7389 12.744 17.7454 12.7594 17.7551C12.9498 17.859 13.1409 17.9548 13.3929 18.0736C13.3929 18.0736 13.4604 18.1029 13.4604 18.1029C13.6565 18.1975 13.8535 18.2841 14.0548 18.367C14.0753 18.3755 14.0957 18.3839 14.1162 18.3924C14.1856 18.4186 14.2545 18.4424 14.3245 18.4711C14.3245 18.4711 14.3939 18.4973 14.3939 18.4973C14.3939 18.4973 14.4746 18.5262 14.4746 18.5262C14.6221 18.5819 14.7654 18.6307 14.9672 18.6924C15.0987 18.7359 15.2378 18.7778 15.3273 18.7994C15.367 18.8113 15.4093 18.8227 15.508 18.8501C15.508 18.8501 15.7274 18.9077 15.7274 18.9077C15.7385 18.9104 15.7883 18.92 15.7995 18.9227C15.9424 18.9584 16.0898 18.9904 16.2366 19.0199C16.2366 19.0199 16.4605 19.0632 16.4605 19.0632C16.6067 19.0902 16.7549 19.1141 16.9348 19.1385C16.9348 19.1385 17.0164 19.1488 17.0164 19.1488C17.0226 19.1526 17.0905 19.1607 17.0961 19.1621C17.2263 19.1769 17.359 19.1911 17.4911 19.2029C17.4911 19.2029 17.7933 19.2308 17.7933 19.2308C17.9448 19.246 18.1205 19.2635 18.3054 19.2525C19.2141 19.1959 20.0815 19.0749 20.8864 18.889C20.9817 18.867 21.0764 18.8425 21.1692 18.8211C28.2193 17.0297 28.6727 10.5851 28.6763 10.5209C28.694 10.1973 28.4764 9.90687 28.1593 9.83747C27.8422 9.7681 27.5232 9.94209 27.4054 10.2439C26.2155 13.2807 23.0762 15.1725 19.4078 15.0583C19.238 15.0552 19.0721 15.046 18.8646 15.0279C18.8297 15.0254 18.7998 15.0218 18.7425 15.0138C18.6216 15.0048 18.5025 14.9927 18.3662 14.974C18.3662 14.974 18.1725 14.9474 18.1725 14.9474C18.0605 14.931 17.9484 14.9146 17.8103 14.8884C17.8103 14.8884 17.7189 14.8699 17.7189 14.8699C17.5509 14.8401 17.3861 14.8015 17.2382 14.767C17.2382 14.767 16.8281 14.661 16.8281 14.661C16.7361 14.64 16.653 14.6117 16.5245 14.57C16.5245 14.57 16.4537 14.5494 16.4537 14.5494C16.4537 14.5494 16.3824 14.5263 16.3824 14.5263C16.2769 14.4925 16.1708 14.4563 16.0716 14.4158C16.0716 14.4158 16.0028 14.3921 16.0028 14.3921C15.9972 14.3907 15.9389 14.3672 15.9327 14.3634C15.8465 14.3331 15.7628 14.3023 15.6822 14.2734C15.5012 14.1989 15.3217 14.1189 15.1112 14.0196C15.1112 14.0196 15.0277 13.9782 15.0277 13.9782C13.0678 13.0391 11.4367 11.5567 10.4255 9.79653C9.49034 8.1825 9.36156 5.81725 10.0821 3.46978C10.1756 3.16565 10.0392 2.83802 9.75469 2.69247C9.6137 2.61937 9.45611 2.60033 9.31067 2.6339ZM2.69171 6.18997C2.53875 6.22526 2.39602 6.31632 2.29862 6.45499C1.32657 7.83863 0.738163 9.47695 0.675485 9.66303C-1.06583 14.0866 0.810632 19.9037 3.44847 23.1156C3.50094 23.1827 3.55533 23.2467 3.60973 23.3107C3.60973 23.3107 3.64407 23.345 3.64407 23.345C3.69345 23.4102 3.74842 23.4768 3.76443 23.4889C3.79548 23.5319 3.83773 23.5776 3.85374 23.5897C3.8983 23.6455 3.94112 23.6937 4.01828 23.7762C4.01828 23.7762 4.3055 24.0822 4.3055 24.0822C4.34659 24.1229 4.38825 24.1661 4.40233 24.1813C4.4575 24.2372 4.51575 24.2951 4.57401 24.3529C4.57401 24.3529 4.71134 24.4902 4.71134 24.4902C4.75243 24.5309 4.79236 24.5666 4.8182 24.587C4.95439 24.7193 5.09057 24.8516 5.23504 24.974C5.24179 24.9804 5.24797 24.9842 5.25414 24.9881C5.25414 24.9881 5.30699 25.034 5.30699 25.034C5.42736 25.1435 5.54907 25.2474 5.65555 25.3311C5.65555 25.3311 6.1287 25.7104 6.1287 25.7104C6.13488 25.7142 6.186 25.7526 6.18966 25.757C6.18966 25.757 6.25621 25.805 6.25621 25.805C6.39779 25.915 6.54689 26.0231 6.69484 26.1263C6.71702 26.1423 6.73863 26.1558 6.76081 26.1718C6.902 26.2686 7.04571 26.3648 7.19559 26.4648C7.19559 26.4648 7.33639 26.5485 7.33639 26.5485C7.45482 26.6268 7.57268 26.7026 7.69439 26.7722C7.69497 26.7747 7.75303 26.8088 7.75303 26.8088C7.75303 26.8088 7.87474 26.8784 7.87474 26.8784C8.02172 26.9659 8.17372 27.0523 8.28752 27.1105C8.29428 27.1169 8.40249 27.1738 8.41117 27.1771C8.55333 27.2551 8.69432 27.3282 8.83726 27.3982C8.83726 27.3982 9.56386 27.7427 9.56386 27.7427C9.68403 27.7942 9.80671 27.8451 9.94732 27.9051C9.99439 27.9259 10.044 27.9461 10.093 27.9638C10.114 27.9748 10.1375 27.9852 10.1518 27.9899C10.1518 27.9899 10.6843 28.1917 10.6843 28.1917C10.8778 28.2632 11.0695 28.3272 11.3035 28.4026C11.3035 28.4026 11.4283 28.4398 11.4283 28.4398C11.5735 28.4855 11.7213 28.5306 11.8592 28.5674C11.9412 28.5907 12.022 28.609 12.0922 28.6272C12.191 28.6545 12.2984 28.6852 12.46 28.7218C12.4743 28.7264 12.5887 28.7528 12.6024 28.7549C12.7646 28.7941 12.9282 28.8276 13.1328 28.8675C13.1334 28.87 13.2 28.8837 13.2 28.8837C13.3872 28.917 13.5689 28.949 13.8073 28.9864C13.8459 28.9933 13.8839 28.9978 13.892 28.9985C14.0614 29.0228 14.2382 29.0454 14.3821 29.0623C14.3958 29.0644 14.4699 29.0764 14.4836 29.0785C14.6755 29.0975 14.8644 29.1147 15.1062 29.1328C15.1467 29.1366 15.1897 29.1399 15.1948 29.1387C15.1948 29.1387 15.3319 29.1493 15.3319 29.1493C15.4984 29.1611 15.6654 29.1753 15.8409 29.1691C17.0848 29.1117 18.2768 28.9553 19.3801 28.7006C19.3801 28.7006 19.3826 28.7 19.3826 28.7C28.5774 26.5772 29.7982 18.5031 29.8109 18.4209C29.8548 18.0965 29.6544 17.789 29.3377 17.6984C29.0266 17.6091 28.6923 17.7629 28.5552 18.0612C26.9128 21.7121 22.7283 23.8928 17.3629 23.8984C17.2331 23.8966 17.0996 23.8905 16.9681 23.8813C16.9681 23.8813 16.7106 23.8641 16.7106 23.8641C16.536 23.8516 16.3603 23.8341 16.1896 23.8154C16.1871 23.816 16.108 23.8052 16.108 23.8052C15.9566 23.79 15.8034 23.7673 15.6696 23.748C15.6696 23.748 15.5164 23.7253 15.5164 23.7253C15.3465 23.6985 15.176 23.6692 15.0099 23.6362C15.0099 23.6362 14.9135 23.6189 14.9135 23.6189C14.7636 23.5875 14.6193 23.5574 14.4739 23.5223C14.4627 23.5196 14.3483 23.4932 14.3377 23.493C14.237 23.4687 14.1357 23.442 14.0059 23.4059C14.0059 23.4059 13.417 23.2461 13.417 23.2461C13.3563 23.2232 13.2936 23.2033 13.2346 23.1879C13.054 23.1266 12.8685 23.0665 12.6843 23.0007C12.6415 22.9868 12.6031 22.9693 12.5305 22.9412C12.404 22.8964 12.2794 22.8486 12.096 22.7748C12.096 22.7748 12.0229 22.7441 12.0229 22.7441C11.8977 22.6938 11.7739 22.6379 11.671 22.593C11.6066 22.5656 11.541 22.5332 11.4351 22.4864C11.3404 22.4422 11.2463 22.4006 11.1572 22.3578C11.1572 22.3578 10.9901 22.2749 10.9901 22.2749C10.8503 22.2068 10.7168 22.132 10.5789 22.0609C10.5604 22.0493 10.5455 22.0422 10.5251 22.0337C10.37 21.9454 10.2124 21.8577 10.0228 21.7457C10.0228 21.7457 9.46479 21.3992 9.46479 21.3992C9.32841 21.3118 9.19146 21.222 9.03426 21.113C8.8894 21.0118 8.74956 20.9094 8.5611 20.7681C8.5611 20.7681 8.21389 20.4997 8.21389 20.4997C8.1703 20.4596 8.1242 20.4201 8.07 20.3798C7.94829 20.2758 7.82715 20.1744 7.70428 20.0655C4.41278 17.2025 2.10323 10.1731 3.44188 7.09411C3.57668 6.78575 3.45592 6.42281 3.15868 6.25643C3.01286 6.1739 2.84466 6.15466 2.69171 6.18997Z" fill="#F0FAEE" transform="translate(6.969 7.433)" />
      </g>
      <path d="M5.34795 20.2368C-4.61793 38.14 -0.278122 58.8714 15.2263 67.4294C30.7307 75.9875 50.6861 68.6663 60.652 50.7632C70.6179 32.86 66.2781 12.1286 50.7737 3.57058C35.2693 -4.98743 15.3138 2.33369 5.34795 20.2368ZM15.0364 30.2038L16.929 26.8039L23.8772 32.05C23.8772 32.05 25.5667 29.0149 25.5667 29.0149C26.6385 27.0894 27.7485 26.013 29.1379 25.8195C30.5042 25.6331 32.2105 26.29 34.2097 27.7711C34.2097 27.7711 42.4754 34.0955 42.4754 34.0955L40.5518 37.5512C40.5518 37.5512 32.9051 31.7076 32.9051 31.7076C31.847 30.9248 31.017 30.5462 30.4501 30.5777C29.8833 30.6093 29.3553 31.0729 28.873 31.9394C28.873 31.9394 27.3583 34.6604 27.3583 34.6604L37.7679 42.5523L35.8725 45.9573L15.0364 30.2038ZM14.1557 49.4862C14.1557 49.4862 18.1429 42.3234 18.1429 42.3234C20.0446 38.9073 24.3731 38.5937 28.6679 42.0208C33.655 46.0014 33.7469 49.3449 31.1706 53.9732C31.1706 53.9732 29.9379 56.1876 29.9379 56.1876L35.1439 59.9804L33.1634 63.5382L14.1557 49.4862ZM29.6249 21.6967C29.6249 21.6967 33.6122 14.5338 33.6122 14.5338C35.5138 11.1177 39.8423 10.8042 44.1371 14.2312C49.1242 18.2118 49.2162 21.5553 46.6398 26.1836C46.6398 26.1836 45.4071 28.3981 45.4071 28.3981L50.6131 32.1909L48.6326 35.7487L29.6249 21.6967ZM19.5693 48.6112L26.8029 53.8985C26.8029 53.8985 28.0538 51.6513 28.0538 51.6513C29.1362 49.7069 29.8145 47.7205 25.6877 45.0469C24.0856 44.015 22.328 43.6552 21.0772 45.9024C21.0772 45.9024 19.5693 48.6112 19.5693 48.6112ZM35.0384 20.8218L42.2721 26.109C42.2721 26.109 43.523 23.8618 43.523 23.8618C44.6054 21.9174 45.2838 19.931 41.1569 17.2574C39.5548 16.2255 37.7972 15.8657 36.5464 18.1129C36.5464 18.1129 35.0384 20.8218 35.0384 20.8218Z" fill="#5F0DC2" transform="translate(128.675 114)" />
      <path d="M46.4504 0L67 48.6235L50.7731 64.2753L28.7467 69L0 24.7429L46.4504 0ZM27.9723 48.3879L33.4371 45.477L35.3828 48.8206L42.0002 47.7459L46.5899 42.851L43.7332 36.4884L31.715 42.8902L28.5377 37.5744L41.1109 30.877L38.6168 25.1974L19.7676 35.2378L16.4569 29.9931L41.4592 16.6751L46.5757 27.9661L53.952 44.1855L45.0472 53.4869L32.3704 55.6814L27.9723 48.3879Z" fill="#FF6809" fill-rule="evenodd" transform="translate(192.675 96)" />
      <g transform="matrix(-0.545 0.839 -0.839 -0.545 144.964 329)">
        <path d="M12.2576 7.80311L1.30592 13.3398Q1.25468 13.3657 1.20056 13.3849Q1.14645 13.4041 1.09033 13.4162Q1.03422 13.4284 0.977012 13.4333Q0.919808 13.4382 0.862443 13.4358Q0.805078 13.4334 0.748482 13.4238Q0.691885 13.4141 0.636976 13.3973Q0.582066 13.3805 0.529733 13.3569Q0.477401 13.3333 0.428494 13.3032Q0.379587 13.2732 0.334899 13.2371Q0.290211 13.2011 0.250467 13.1596Q0.210722 13.1182 0.176565 13.072Q0.142409 13.0259 0.114394 12.9758Q0.0863797 12.9257 0.0649613 12.8724Q0.0435429 12.8191 0.0290681 12.7636Q0.0145932 12.708 0.00729659 12.651Q0 12.5941 0 12.5367L0 1.46332Q0 1.4059 0.0072966 1.34895Q0.0145932 1.292 0.0290681 1.23644Q0.0435429 1.18088 0.0649613 1.12761Q0.0863797 1.07434 0.114394 1.02423Q0.142409 0.974109 0.176566 0.927959Q0.210722 0.88181 0.250467 0.840375Q0.290211 0.79894 0.334899 0.762892Q0.379587 0.726844 0.428494 0.696768Q0.477401 0.666691 0.529734 0.643074Q0.582066 0.619457 0.636976 0.602682Q0.691886 0.585907 0.748482 0.576246Q0.805078 0.566585 0.862443 0.564195Q0.919809 0.561805 0.977012 0.566725Q1.03422 0.571644 1.09033 0.583794Q1.14645 0.595944 1.20056 0.615126Q1.25468 0.634308 1.30592 0.660213L12.2576 6.1969Q12.2853 6.21089 12.3119 6.22676Q12.3386 6.24263 12.3641 6.2603Q12.3896 6.27797 12.4138 6.29735Q12.4381 6.31673 12.4609 6.33774Q12.4837 6.35874 12.505 6.38127Q12.5264 6.4038 12.5461 6.42774Q12.5658 6.45168 12.5839 6.47692Q12.6019 6.50217 12.6181 6.52859Q12.6344 6.55502 12.6488 6.5825Q12.6632 6.60998 12.6756 6.63839Q12.6881 6.6668 12.6986 6.696Q12.7091 6.7252 12.7175 6.75505Q12.726 6.7849 12.7323 6.81526Q12.7387 6.84562 12.743 6.87635Q12.7472 6.90708 12.7494 6.93803Q12.7515 6.96898 12.7515 7Q12.7515 7.03102 12.7494 7.06197Q12.7472 7.09292 12.743 7.12365Q12.7387 7.15438 12.7323 7.18474Q12.726 7.2151 12.7175 7.24496Q12.7091 7.27481 12.6986 7.30401Q12.6881 7.33321 12.6756 7.36161Q12.6632 7.39002 12.6488 7.4175Q12.6344 7.44498 12.6181 7.47141Q12.6019 7.49784 12.5839 7.52308Q12.5658 7.54832 12.5461 7.57227Q12.5264 7.59621 12.505 7.61873Q12.4837 7.64126 12.4609 7.66226Q12.438 7.68327 12.4138 7.70265Q12.3896 7.72203 12.3641 7.7397Q12.3386 7.75737 12.3119 7.77324Q12.2853 7.78911 12.2576 7.80311Z" fill="#7917F1" fill-rule="evenodd" transform="translate(6.154 0)" />
        <path d="M3.61538 0C4.16774 0 4.61538 0.44764 4.61538 1L4.61538 12.2222C4.61538 12.7746 4.16774 13.2222 3.61538 13.2222L1 13.2222C0.44764 13.2222 2.37945e-08 12.7746 2.27656e-08 12.2222L1.86265e-09 1C8.33795e-10 0.44764 0.44764 0 1 0L3.61538 0Z" fill="#7917F1" transform="matrix(1 -0 0 1 0 0.389)" />
      </g>
      <path d="M6.28159 29.4428C6.28159 29.4428 10.6677 33.2893 13.9591 32.9826C17.2505 32.6759 19.8418 31.4086 22.2273 28.8385C24.6126 26.2683 24.4886 22.9439 24.8427 20.2048C25.1967 17.4656 24.8427 8.54938 24.8427 8.54938C24.8427 8.54938 24.0963 5.92676 22.649 5.95932C21.2018 5.99188 20.3434 7.46994 20.5398 8.0314C20.7363 8.59286 20.5399 15.8017 20.5399 15.8017L20.5399 4.05994C20.5399 4.05994 20.4617 1.49387 18.4306 1.55618C16.3995 1.61853 16.0683 4.05991 16.0683 4.05991L16.0683 14.8519L16.1867 2.65433C16.1867 2.65433 16.0858 -0.0873108 13.9591 0.00210571C11.8324 0.0915833 11.6812 2.33322 11.6812 2.33322L11.6812 14.852L11.6812 3.36963C11.6812 3.36963 11.1793 1.46024 9.48756 1.55618C7.79584 1.65213 7.37836 3.36966 7.37836 3.36966L7.37836 18.3918L3.83487 13.3842C3.83487 13.3842 2.4267 11.7336 0.882004 12.6936C-0.662689 13.6535 0.291412 15.8016 0.291412 15.8016C0.291412 15.8016 4.54352 28.1949 6.28159 29.4428Z" fill="none" stroke-width="3" stroke="#7917F1" transform="matrix(0.985 -0.174 0.174 0.985 144.759 339.173)" />
      <path d="M0.13649 17.9681C0.107986 17.9073 0.0907898 17.8409 0.0839539 17.7716C0.0722351 17.6222 0.117722 17.4754 0.210724 17.3603C0.210724 17.3603 5.34834 11.13 5.34834 11.13C5.34834 11.13 0.345764 9.15642 0.345764 9.15642C0.145782 9.07827 0.0116119 8.88185 0.000595093 8.65937C-0.00950623 8.43884 0.109726 8.23037 0.302002 8.13286C0.302002 8.13286 16.2276 0.0567627 16.2276 0.0567627C16.4199 -0.040741 16.6485 -0.0110931 16.8122 0.133972C16.9732 0.277992 17.0394 0.50885 16.9764 0.722786C16.9764 0.722786 11.8161 18.2469 11.8161 18.2469C11.7541 18.4579 11.5763 18.6111 11.3669 18.6372C11.1555 18.6643 10.9501 18.5598 10.8403 18.3705C10.8403 18.3705 8.02107 13.4748 8.02107 13.4748C8.02107 13.4748 3.03363 19.7963 3.03363 19.7963C2.94437 19.9095 2.81328 19.9832 2.67058 19.9974C2.52786 20.0115 2.3885 19.9681 2.27872 19.8734C2.27872 19.8734 0.277298 18.1539 0.277298 18.1539C0.217773 18.1016 0.170517 18.0406 0.13649 17.9681Z" fill="#7917F1" transform="translate(209.675 71)" />
      <path d="M12.1951 0.100819C10.9829 -0.269783 9.69818 0.413307 9.32758 1.62551C9.32758 1.62551 0.10083 31.8049 0.10083 31.8049C-0.269775 33.0171 0.4133 34.3018 1.62549 34.6724C1.62549 34.6724 31.8049 43.8992 31.8049 43.8992C33.0171 44.2698 34.3018 43.5867 34.6714 42.3777C34.6714 42.3777 43.8992 12.1951 43.8992 12.1951C44.2698 10.9829 43.5867 9.69819 42.3777 9.32857C42.3777 9.32857 12.1951 0.100819 12.1951 0.100819ZM20.8318 31.7089C19.8262 34.9982 17.4388 35.9068 14.6222 35.0456C12.0756 34.2671 10.7617 31.9984 10.4971 30.1842C10.4971 30.1842 13.5642 29.4096 13.5642 29.4096C13.7923 30.4462 14.3427 31.3599 15.4359 31.6941C16.4809 32.0136 17.207 31.7891 17.6926 30.2007C17.6926 30.2007 20.857 19.8504 20.857 19.8504L24.1496 20.857C24.1496 20.857 20.8318 31.7089 20.8318 31.7089ZM26.5094 38.6799C23.5931 37.7883 22.3864 35.8126 22.021 33.7074C22.021 33.7074 24.9937 32.8161 24.9937 32.8161C25.3295 34.1212 25.7411 35.3968 27.291 35.8706C28.5932 36.2687 29.4734 35.8276 29.7487 34.9273C30.077 33.8534 29.4866 33.2545 28.2474 32.19C28.2474 32.19 27.5661 31.6126 27.5661 31.6126C25.5942 29.9549 24.4558 28.2849 25.2383 25.7255C25.9579 23.3718 28.3038 22.1271 31.1076 22.9843C33.1043 23.5948 34.326 24.7278 34.805 26.8642C34.805 26.8642 31.8806 27.6894 31.8806 27.6894C31.6364 26.5564 31.1736 26.0001 30.2701 25.7238C29.3505 25.4427 28.5896 25.85 28.3566 26.612C28.0686 27.5541 28.5345 28.1114 29.7029 29.1085C29.7029 29.1085 30.3842 29.686 30.3842 29.686C32.7072 31.6444 33.8551 33.2716 33.053 35.8954C32.1889 38.7217 29.4933 39.5922 26.5094 38.6799Z" fill="#F7CE00" transform="translate(331.675 0)" />
      <g transform="matrix(0.951 -0.309 0.309 0.951 390.775 178)">
        <path d="M24.3328 44.6875C24.3328 46.033 23.2424 47.125 21.8953 47.125C20.5481 47.125 19.4578 46.033 19.4578 44.6875C19.4578 44.6875 19.4578 21.9375 19.4578 21.9375C19.4578 20.8764 20.1451 19.9371 21.1559 19.6138C22.1715 19.292 23.2716 19.6625 23.8843 20.5286C23.8843 20.5286 51.1469 59.0476 51.1469 59.0476C59.5026 53.1521 65 43.4444 65 32.5C65 14.625 50.375 0 32.5 0C14.625 0 0 14.625 0 32.5C0 50.375 14.625 65 32.5 65C37.687 65 42.5848 63.7374 46.9463 61.5517C46.9463 61.5517 24.3328 29.601 24.3328 29.601L24.3328 44.6875C24.3328 44.6875 24.3328 44.6875 24.3328 44.6875ZM40.5827 20.3125C40.5827 18.967 41.6731 17.875 43.0202 17.875C44.3674 17.875 45.4577 18.967 45.4577 20.3125C45.4577 20.3125 45.4577 42.8025 45.4577 42.8025L40.5827 35.9336L40.5827 20.3125C40.5827 20.3125 40.5827 20.3125 40.5827 20.3125Z" fill="#5F0DC2" transform="translate(6.5 6.5)" />
      </g>
      <path d="M6.28156 29.4428C6.28156 29.4428 10.6677 33.2893 13.9591 32.9826C17.2505 32.6759 19.8418 31.4086 22.2272 28.8384C24.6126 26.2683 24.4885 22.9439 24.8427 20.2048C25.1967 17.4657 24.8426 8.54939 24.8426 8.54939C24.8426 8.54939 24.0963 5.92676 22.649 5.9593C21.2018 5.99187 20.3434 7.46994 20.5398 8.03139C20.7363 8.59285 20.5398 15.8017 20.5398 15.8017L20.5398 4.05992C20.5398 4.05992 20.4617 1.49385 18.4306 1.55618C16.3995 1.61852 16.0683 4.05992 16.0683 4.05992L16.0683 14.852L16.1867 2.65431C16.1867 2.65431 16.0858 -0.0872803 13.9591 0.00213623C11.8323 0.091568 11.6811 2.33319 11.6811 2.33319L11.6811 14.852L11.6811 3.36964C11.6811 3.36964 11.1793 1.46025 9.48755 1.55618C7.79581 1.65211 7.37833 3.36964 7.37833 3.36964L7.37833 18.3917L3.83487 13.3842C3.83487 13.3842 2.4267 11.7336 0.881989 12.6935C-0.66272 13.6535 0.291382 15.8017 0.291382 15.8017C0.291382 15.8017 4.54349 28.1949 6.28156 29.4428Z" fill="none" stroke-width="3" stroke="#7917F1" transform="translate(380.675 165)" />
      <g transform="matrix(0.035 0.999 -0.999 0.035 134.744 201)">
        <path d="M0 15C0 6.71573 6.71573 0 15 0C23.2843 0 30 6.71573 30 15C30 23.2843 23.2843 30 15 30C6.71573 30 0 23.2843 0 15Z" fill="#7917F1" fill-rule="evenodd" />
        <path d="M9.95124 1.60979L17.6415 16.9903Q17.6671 17.0416 17.686 17.0956Q17.705 17.1497 17.7169 17.2058Q17.7288 17.2618 17.7335 17.3189Q17.7382 17.376 17.7356 17.4332Q17.733 17.4905 17.7232 17.5469Q17.7134 17.6033 17.6965 17.6581Q17.6796 17.7128 17.6559 17.765Q17.6322 17.8172 17.6021 17.8659Q17.572 17.9146 17.5359 17.9591Q17.4999 18.0037 17.4585 18.0433Q17.4171 18.0828 17.371 18.1169Q17.3249 18.1509 17.2748 18.1788Q17.2248 18.2067 17.1716 18.228Q17.1185 18.2493 17.063 18.2637Q17.0076 18.2782 16.9507 18.2854Q16.8939 18.2927 16.8366 18.2927L1.45607 18.2927Q1.39878 18.2927 1.34196 18.2854Q1.28513 18.2782 1.22968 18.2637Q1.17423 18.2493 1.12106 18.228Q1.06789 18.2067 1.01785 18.1788Q0.967814 18.1509 0.921718 18.1169Q0.875621 18.0828 0.834211 18.0433Q0.792801 18.0037 0.756745 17.9591Q0.720689 17.9146 0.69057 17.8659Q0.660451 17.8172 0.636755 17.765Q0.613059 17.7128 0.596169 17.6581Q0.579279 17.6033 0.569467 17.5469Q0.559655 17.4905 0.55708 17.4332Q0.554505 17.376 0.559208 17.3189Q0.563911 17.2618 0.575817 17.2058Q0.587723 17.1497 0.606639 17.0956Q0.625555 17.0416 0.651175 16.9903L8.34144 1.60979Q8.35537 1.58194 8.3712 1.55511Q8.38702 1.52828 8.40466 1.5026Q8.4223 1.47693 8.44167 1.45254Q8.46104 1.42815 8.48206 1.40516Q8.50307 1.38217 8.52562 1.36068Q8.54817 1.3392 8.57215 1.31933Q8.59614 1.29945 8.62144 1.28128Q8.64674 1.26312 8.67323 1.24674Q8.69973 1.23037 8.7273 1.21586Q8.75486 1.20136 8.78336 1.18879Q8.81186 1.17623 8.84116 1.16567Q8.87047 1.1551 8.90043 1.14659Q8.93039 1.13808 8.96087 1.13166Q8.99135 1.12524 9.0222 1.12094Q9.05305 1.11665 9.08412 1.11449Q9.11519 1.11234 9.14634 1.11234Q9.17749 1.11234 9.20856 1.11449Q9.23964 1.11665 9.27048 1.12094Q9.30134 1.12524 9.33181 1.13166Q9.36229 1.13808 9.39225 1.14659Q9.42222 1.1551 9.45152 1.16567Q9.48082 1.17623 9.50932 1.18879Q9.53782 1.20136 9.56539 1.21586Q9.59295 1.23037 9.61945 1.24674Q9.64594 1.26312 9.67124 1.28128Q9.69654 1.29945 9.72053 1.31933Q9.74451 1.3392 9.76706 1.36068Q9.78962 1.38217 9.81063 1.40516Q9.83164 1.42815 9.85101 1.45254Q9.87039 1.47693 9.88802 1.5026Q9.90566 1.52828 9.92149 1.55511Q9.93731 1.58194 9.95124 1.60979Z" fill="#F0FAEE" fill-rule="evenodd" transform="translate(5.854 3.659)" />
      </g>
      <g transform="matrix(0.988 -0.156 0.156 0.988 284.703 205)">
        <path d="M12.2576 7.80311L1.30592 13.3398Q1.25468 13.3657 1.20056 13.3849Q1.14645 13.4041 1.09033 13.4162Q1.03422 13.4284 0.977012 13.4333Q0.919808 13.4382 0.862443 13.4358Q0.805078 13.4334 0.748482 13.4238Q0.691885 13.4141 0.636976 13.3973Q0.582066 13.3805 0.529733 13.3569Q0.477401 13.3333 0.428494 13.3032Q0.379587 13.2732 0.334899 13.2371Q0.290211 13.2011 0.250467 13.1596Q0.210722 13.1182 0.176565 13.072Q0.142409 13.0259 0.114394 12.9758Q0.0863797 12.9257 0.0649613 12.8724Q0.0435429 12.8191 0.0290681 12.7636Q0.0145932 12.708 0.00729659 12.651Q0 12.5941 0 12.5367L0 1.46332Q0 1.4059 0.0072966 1.34895Q0.0145932 1.292 0.0290681 1.23644Q0.0435429 1.18088 0.0649613 1.12761Q0.0863797 1.07434 0.114394 1.02423Q0.142409 0.974109 0.176566 0.927959Q0.210722 0.88181 0.250467 0.840375Q0.290211 0.79894 0.334899 0.762892Q0.379587 0.726844 0.428494 0.696768Q0.477401 0.666691 0.529734 0.643074Q0.582066 0.619457 0.636976 0.602682Q0.691886 0.585907 0.748482 0.576246Q0.805078 0.566585 0.862443 0.564195Q0.919809 0.561805 0.977012 0.566725Q1.03422 0.571644 1.09033 0.583794Q1.14645 0.595944 1.20056 0.615126Q1.25468 0.634308 1.30592 0.660213L12.2576 6.1969Q12.2853 6.21089 12.3119 6.22676Q12.3386 6.24263 12.3641 6.2603Q12.3896 6.27797 12.4138 6.29735Q12.4381 6.31673 12.4609 6.33774Q12.4837 6.35874 12.505 6.38127Q12.5264 6.4038 12.5461 6.42774Q12.5658 6.45168 12.5839 6.47692Q12.6019 6.50217 12.6181 6.52859Q12.6344 6.55502 12.6488 6.5825Q12.6632 6.60998 12.6756 6.63839Q12.6881 6.6668 12.6986 6.696Q12.7091 6.7252 12.7175 6.75505Q12.726 6.7849 12.7323 6.81526Q12.7387 6.84562 12.743 6.87635Q12.7472 6.90708 12.7494 6.93803Q12.7515 6.96898 12.7515 7Q12.7515 7.03102 12.7494 7.06197Q12.7472 7.09292 12.743 7.12365Q12.7387 7.15438 12.7323 7.18474Q12.726 7.2151 12.7175 7.24496Q12.7091 7.27481 12.6986 7.30401Q12.6881 7.33321 12.6756 7.36161Q12.6632 7.39002 12.6488 7.4175Q12.6344 7.44498 12.6181 7.47141Q12.6019 7.49784 12.5839 7.52308Q12.5658 7.54832 12.5461 7.57227Q12.5264 7.59621 12.505 7.61873Q12.4837 7.64126 12.4609 7.66226Q12.438 7.68327 12.4138 7.70265Q12.3896 7.72203 12.3641 7.7397Q12.3386 7.75737 12.3119 7.77324Q12.2853 7.78911 12.2576 7.80311Z" fill="#7917F1" fill-rule="evenodd" transform="translate(6.154 0)" />
        <path d="M3.61538 0C4.16774 0 4.61538 0.44764 4.61538 1L4.61538 12.2222C4.61538 12.7746 4.16774 13.2222 3.61538 13.2222L1 13.2222C0.44764 13.2222 2.37945e-08 12.7746 2.27656e-08 12.2222L1.86265e-09 1C8.33795e-10 0.44764 0.44764 0 1 0L3.61538 0Z" fill="#7917F1" transform="matrix(1 -0 0 1 0 0.389)" />
      </g>
    </g>
  </g>
</svg>